<?xml version="1.0" encoding="iso-8859-1"?>
<!-- Generator: Adobe Illustrator 18.0.0, SVG Export Plug-In . SVG Version: 6.00 Build 0)  -->
<!DOCTYPE svg PUBLIC "-//W3C//DTD SVG 1.1//EN" "http://www.w3.org/Graphics/SVG/1.1/DTD/svg11.dtd">
<svg version="1.1" id="Calque_1" xmlns="http://www.w3.org/2000/svg" xmlns:xlink="http://www.w3.org/1999/xlink" x="0px" y="0px"
	 viewBox="0 0 160 32" style="enable-background:new 0 0 160 32;" xml:space="preserve">
<g id="XMLID_22_">
	<g id="XMLID_107_">
		
			<path id="XMLID_92_" style="fill:#61C3AE;stroke:#34518C;stroke-width:0.5;stroke-linecap:round;stroke-linejoin:round;stroke-miterlimit:10;" d="
			M110.359,28.739H98.988v-2.227c0-3.032,2.458-5.49,5.49-5.49h0.392c3.032,0,5.49,2.458,5.49,5.49V28.739z"/>
		<path id="XMLID_121_" style="fill:#E8E4E4;" d="M104.175,21.175c0.389,0.599,1.199,1.388,2.763,1.388
			c0.81,0,1.446-0.254,1.892-0.757c-0.569-0.413-1.239-0.631-1.948-0.631L104.175,21.175L104.175,21.175z"/>
		
			<rect id="XMLID_105_" x="103.496" y="19.418" style="fill:#FDF6B0;stroke:#34518C;stroke-width:0.5;stroke-linecap:round;stroke-linejoin:round;stroke-miterlimit:10;" width="2.356" height="2.081"/>
		
			<rect id="XMLID_93_" x="103.379" y="18.606" style="fill:#FDF6B0;stroke:#34518C;stroke-width:0.5;stroke-linecap:round;stroke-linejoin:round;stroke-miterlimit:10;" width="2.589" height="1.624"/>
		
			<circle id="XMLID_90_" style="fill:#FDF6B0;stroke:#34518C;stroke-width:0.5;stroke-linecap:round;stroke-linejoin:round;stroke-miterlimit:10;" cx="104.674" cy="15.205" r="4.026"/>
		
			<path id="XMLID_99_" style="fill:#F7AB6F;stroke:#34518C;stroke-width:0.5;stroke-linecap:round;stroke-linejoin:round;stroke-miterlimit:10;" d="
			M107.997,15.738v0.645c0,0.135-0.066,0.26-0.173,0.328l-1.405,0.897c-0.234,0.149-0.529-0.135-0.529-0.43v-0.019
			c0-0.21-0.157-0.381-0.351-0.381h-0.865h-0.865c-0.194,0-0.351,0.17-0.351,0.381v0.019c0,0.295-0.295,0.579-0.529,0.43
			l-1.405-0.897c-0.107-0.068-0.173-0.193-0.173-0.328v-0.645c0-0.21-0.157-0.381-0.351-0.381l0,0c-0.194,0-0.351,0.17-0.351,0.381
			v2.759c0,0.071,0.019,0.141,0.053,0.202l1.014,1.759c0.064,0.111,0.177,0.179,0.298,0.179h2.661h2.66
			c0.121,0,0.234-0.068,0.298-0.179l1.014-1.759c0.035-0.06,0.053-0.13,0.053-0.202v-2.759c0-0.21-0.157-0.381-0.351-0.381l0,0
			C108.154,15.357,107.997,15.527,107.997,15.738z"/>
		
			<path id="XMLID_102_" style="fill:#F7AB6F;stroke:#34518C;stroke-width:0.5;stroke-linecap:round;stroke-linejoin:round;stroke-miterlimit:10;" d="
			M107.563,11.702l0.488,3.082h0.629c0,0,0.284-1.142,0.352-2.068C109.1,11.79,107.563,11.702,107.563,11.702z"/>
		<g id="XMLID_98_">
			
				<path id="XMLID_95_" style="fill:#65C3EF;stroke:#34518C;stroke-width:0.5;stroke-linecap:round;stroke-linejoin:round;stroke-miterlimit:10;" d="
				M101.916,15.941h1.441c0.16,0,0.312-0.072,0.413-0.195l0.423-0.515c0.079-0.096,0.122-0.216,0.122-0.339l0,0
				c0-0.247-0.169-0.462-0.41-0.52l-0.603-0.145c-0.42-0.101-0.859-0.084-1.269,0.05l-0.403,0.131
				c-0.266,0.087-0.42,0.364-0.353,0.635l0.12,0.489C101.455,15.773,101.669,15.941,101.916,15.941z"/>
			
				<path id="XMLID_100_" style="fill:#65C3EF;stroke:#34518C;stroke-width:0.5;stroke-linecap:round;stroke-linejoin:round;stroke-miterlimit:10;" d="
				M107.431,15.941h-1.441c-0.16,0-0.312-0.072-0.413-0.195l-0.423-0.515c-0.079-0.096-0.122-0.216-0.122-0.339l0,0
				c0-0.247,0.169-0.462,0.41-0.52l0.603-0.145c0.42-0.101,0.859-0.084,1.269,0.05l0.403,0.131c0.266,0.087,0.42,0.364,0.353,0.635
				l-0.12,0.489C107.892,15.773,107.678,15.941,107.431,15.941z"/>
			<g id="XMLID_119_">
				<path id="XMLID_116_" style="fill:#C9EBFC;" d="M105.478,14.52c-0.172,0.041-0.293,0.194-0.293,0.372
					c0,0.014,0.001,0.029,0.003,0.044c0.918-0.045,1.735-0.207,2.278-0.449l-0.198-0.065c-0.22-0.072-0.448-0.108-0.676-0.108
					c-0.171,0-0.342,0.02-0.51,0.061L105.478,14.52z"/>
				<path id="XMLID_128_" style="fill:#C9EBFC;" d="M104.16,14.935c0.002-0.015,0.003-0.029,0.003-0.044
					c0-0.177-0.12-0.33-0.293-0.372l-0.603-0.145c-0.392-0.095-0.803-0.078-1.187,0.047l-0.198,0.065
					C102.425,14.728,103.241,14.891,104.16,14.935z"/>
			</g>
		</g>
		
			<path id="XMLID_106_" style="fill:#34518C;stroke:#34518C;stroke-width:0.5;stroke-linecap:round;stroke-linejoin:round;stroke-miterlimit:10;" d="
			M104.674,14.659c0.154,0,0.279,0.125,0.279,0.279h0.084c-0.001-0.016-0.004-0.031-0.004-0.046l0,0
			c0-0.162,0.074-0.309,0.192-0.408c-0.131-0.158-0.329-0.259-0.551-0.259c-0.222,0-0.42,0.101-0.551,0.259
			c0.118,0.099,0.192,0.246,0.192,0.408l0,0c0,0.016-0.003,0.031-0.004,0.046h0.084C104.394,14.784,104.519,14.659,104.674,14.659z"
			/>
		
			<rect id="XMLID_104_" x="108.086" y="14.784" style="fill:#34518C;stroke:#34518C;stroke-width:0.5;stroke-linecap:round;stroke-linejoin:round;stroke-miterlimit:10;" width="0.614" height="0.701"/>
		
			<rect id="XMLID_103_" x="103.984" y="17.415" style="fill:#FDF6B0;stroke:#34518C;stroke-width:0.5;stroke-linecap:round;stroke-linejoin:round;stroke-miterlimit:10;" width="1.379" height="0.412"/>
		<path id="XMLID_112_" style="fill:#E8E4E4;" d="M100.863,14.509c0.002,0.02,0.004,0.038,0.005,0.055l0.354,0.048l0.193-1.413
			c0.006-0.042,0.029-0.08,0.064-0.105s0.079-0.033,0.121-0.023c0.046,0.011,4.58,1.032,7.241,0.015
			c0.017-0.137,0.03-0.265,0.038-0.382c0.011-0.151-0.029-0.28-0.123-0.393l-0.481-0.066c-0.061-0.008-0.111-0.052-0.127-0.112
			c-0.015-0.057,0.004-0.117,0.048-0.155c-0.168-0.055-0.332-0.086-0.453-0.104l0.103,0.648c0.011,0.067-0.024,0.133-0.086,0.162
			c-0.061,0.029-0.134,0.014-0.179-0.037c-0.736-0.837-1.796-1.317-2.909-1.317C102.797,11.331,101.197,12.666,100.863,14.509z"/>
		
			<path id="XMLID_94_" style="fill:#F7AB6F;stroke:#34518C;stroke-width:0.5;stroke-linecap:round;stroke-linejoin:round;stroke-miterlimit:10;" d="
			M100.723,14.784h0.629v-1.578c0,0,6.693,0.603,8.469-2.027h-1.955l0.66-0.67c0,0-5.956-1.03-7.141,0.856
			c0,0-1.083,0.426-1.015,1.352C100.439,13.642,100.723,14.784,100.723,14.784z"/>
		
			<rect id="XMLID_101_" x="100.648" y="14.784" style="fill:#34518C;stroke:#34518C;stroke-width:0.5;stroke-linecap:round;stroke-linejoin:round;stroke-miterlimit:10;" width="0.614" height="0.701"/>
		
			<path id="XMLID_117_" style="fill:none;stroke:#34518C;stroke-width:0.5;stroke-linecap:round;stroke-linejoin:round;stroke-miterlimit:10;" d="
			M101.386,11.365c-0.173,0.305-0.125,0.636-0.125,0.636"/>
	</g>
	
		<path id="XMLID_3_" style="fill:#FFFFFF;stroke:#34518C;stroke-width:0.5;stroke-linecap:round;stroke-linejoin:round;stroke-miterlimit:10;" d="
		M81.551,23.623H66.757c-1.487,0-2.693-1.206-2.693-2.693v-8.516c0-1.487,1.206-2.693,2.693-2.693h14.794
		c1.487,0,2.693,1.206,2.693,2.693v8.516C84.244,22.418,83.038,23.623,81.551,23.623z"/>
	
		<path id="XMLID_6_" style="fill:#C9EBFC;stroke:#34518C;stroke-width:0.5;stroke-linecap:round;stroke-linejoin:round;stroke-miterlimit:10;" d="
		M64.064,21.022v1.166c0,0.792,0.642,1.435,1.435,1.435h17.309c0.792,0,1.435-0.642,1.435-1.435v-1.166H64.064z"/>
	
		<rect id="XMLID_5_" x="72.191" y="23.623" style="fill:#FFFFFF;stroke:#34518C;stroke-width:0.5;stroke-linecap:round;stroke-linejoin:round;stroke-miterlimit:10;" width="3.668" height="2.131"/>
	
		<path id="XMLID_16_" style="fill:#FFFFFF;stroke:#34518C;stroke-width:0.5;stroke-linecap:round;stroke-linejoin:round;stroke-miterlimit:10;" d="
		M76.748,26.426h-5.447c-0.179,0-0.324-0.145-0.324-0.324v-0.023c0-0.179,0.145-0.324,0.324-0.324h5.447
		c0.179,0,0.324,0.145,0.324,0.324v0.023C77.073,26.281,76.928,26.426,76.748,26.426z"/>
	<g id="XMLID_64_">
		<rect id="XMLID_71_" x="65.08" y="10.737" style="fill:#F5FBFE;" width="18.149" height="9.27"/>
		
			<rect id="XMLID_70_" x="65.08" y="10.737" style="fill:#F5FBFE;stroke:#34518C;stroke-width:0.5;stroke-linecap:round;stroke-linejoin:round;stroke-miterlimit:10;" width="18.149" height="9.27"/>
	</g>
	<rect id="XMLID_56_" x="47.966" y="26.426" style="fill:#E8E4E4;" width="69.636" height="2.79"/>
	
		<line id="XMLID_32_" style="fill:none;stroke:#34518C;stroke-width:0.5;stroke-linecap:round;stroke-linejoin:round;stroke-miterlimit:10;" x1="47.292" y1="26.426" x2="118.277" y2="26.426"/>
	
		<line id="XMLID_35_" style="fill:none;stroke:#34518C;stroke-width:0.5;stroke-linecap:round;stroke-linejoin:round;stroke-miterlimit:10;" x1="40" y1="31.856" x2="72.453" y2="31.856"/>
	
		<path id="XMLID_9_" style="fill:none;stroke:#34518C;stroke-width:0.5;stroke-linecap:round;stroke-linejoin:round;stroke-miterlimit:10;" d="
		M105.095,31.856"/>
	
		<path id="XMLID_1_" style="fill:none;stroke:#34518C;stroke-width:0.5;stroke-linecap:round;stroke-linejoin:round;stroke-miterlimit:10;" d="
		M86.983,31.856"/>
	
		<path id="XMLID_8_" style="fill:none;stroke:#34518C;stroke-width:0.5;stroke-linecap:round;stroke-linejoin:round;stroke-miterlimit:10;" d="
		M120,3.91"/>
	
		<path id="XMLID_4_" style="fill:none;stroke:#34518C;stroke-width:0.5;stroke-linecap:round;stroke-linejoin:round;stroke-miterlimit:10;" d="
		M78.726,3.91"/>
	
		<path id="XMLID_46_" style="fill:#A6D495;stroke:#34518C;stroke-width:0.5;stroke-linecap:round;stroke-linejoin:round;stroke-miterlimit:10;" d="
		M66.844,30.384H55.472V25.72c0-3.032,2.458-5.49,5.49-5.49h0.392c3.032,0,5.49,2.458,5.49,5.49V30.384z"/>
	
		<rect id="XMLID_69_" x="65.08" y="10.737" style="fill:#F498C0;stroke:#34518C;stroke-width:0.5;stroke-linecap:round;stroke-linejoin:round;stroke-miterlimit:10;" width="18.149" height="3.222"/>
	
		<circle id="XMLID_72_" style="fill:#A6D495;stroke:#FFFFFF;stroke-width:0.5;stroke-linecap:round;stroke-linejoin:round;stroke-miterlimit:10;" cx="67.485" cy="12.348" r="0.67"/>
	
		<line id="XMLID_74_" style="fill:none;stroke:#FFFFFF;stroke-width:0.5;stroke-linecap:round;stroke-linejoin:round;stroke-miterlimit:10;" x1="69.924" y1="11.989" x2="71.108" y2="11.989"/>
	
		<line id="XMLID_75_" style="fill:none;stroke:#FFFFFF;stroke-width:0.5;stroke-linecap:round;stroke-linejoin:round;stroke-miterlimit:10;" x1="69.924" y1="12.78" x2="73.782" y2="12.78"/>
	<g id="XMLID_78_">
		<g id="XMLID_76_">
			
				<rect id="XMLID_73_" x="70.674" y="15.712" style="fill:#FFFFFF;stroke:#34518C;stroke-width:0.5;stroke-linecap:round;stroke-linejoin:round;stroke-miterlimit:10;" width="4.112" height="3.097"/>
			
				<rect id="XMLID_77_" x="70.674" y="15.205" style="fill:#F7AB6F;stroke:#34518C;stroke-width:0.5;stroke-linecap:round;stroke-linejoin:round;stroke-miterlimit:10;" width="4.112" height="1.396"/>
		</g>
		<g id="XMLID_79_">
			
				<rect id="XMLID_81_" x="76.931" y="15.712" style="fill:#FFFFFF;stroke:#34518C;stroke-width:0.5;stroke-linecap:round;stroke-linejoin:round;stroke-miterlimit:10;" width="4.112" height="3.097"/>
			
				<rect id="XMLID_80_" x="76.931" y="15.205" style="fill:#65C3EF;stroke:#34518C;stroke-width:0.5;stroke-linecap:round;stroke-linejoin:round;stroke-miterlimit:10;" width="4.112" height="1.396"/>
		</g>
	</g>
	<rect id="XMLID_87_" x="72.343" y="23.776" style="fill:#E8E4E4;" width="3.363" height="0.43"/>
	
		<circle id="XMLID_62_" style="fill:#FFFFFF;stroke:#34518C;stroke-width:0.5;stroke-linecap:round;stroke-linejoin:round;stroke-miterlimit:10;" cx="74.154" cy="22.323" r="0.485"/>
	<rect id="XMLID_89_" x="65.232" y="10.89" style="fill:#E8E4E4;" width="17.844" height="0.578"/>
	
		<rect id="XMLID_67_" x="66.675" y="25.225" style="fill:#A6D495;stroke:#34518C;stroke-width:0.5;stroke-linecap:round;stroke-linejoin:round;stroke-miterlimit:10;" width="4" height="1.731"/>
	
		<path id="XMLID_82_" style="fill:#FDF6B0;stroke:#34518C;stroke-width:0.5;stroke-linecap:round;stroke-linejoin:round;stroke-miterlimit:10;" d="
		M72.131,25.225h-1.457v1.202h2.617v-0.041C73.291,25.744,72.772,25.225,72.131,25.225z"/>
	<g id="XMLID_83_">
		
			<path id="XMLID_30_" style="fill:#65C3EF;stroke:#34518C;stroke-width:0.5;stroke-linecap:round;stroke-linejoin:round;stroke-miterlimit:10;" d="
			M68.685,31.856H53.631l1.632-7.616c0.247-1.151,1.54-1.995,3.055-1.995h5.679c1.516,0,2.809,0.844,3.055,1.995L68.685,31.856z"/>
		<path id="XMLID_86_" style="fill:#E8E4E4;" d="M54.882,31.704h0.544l1.388-6.576c0,0,0,0,0,0c0.158-0.736,1.129-1.313,2.211-1.313
			h5.679c0.292,0,0.584,0.043,0.856,0.123c-0.36-0.319-0.944-0.525-1.563-0.525h-5.679c-0.928,0-1.787,0.481-1.914,1.072
			L54.882,31.704z"/>
		
			<line id="XMLID_59_" style="fill:none;stroke:#34518C;stroke-width:0.5;stroke-linecap:round;stroke-linejoin:round;stroke-miterlimit:10;" x1="67.503" y1="31.856" x2="66.406" y2="26.72"/>
		<g id="XMLID_58_">
			
				<path id="XMLID_63_" style="fill:none;stroke:#34518C;stroke-width:0.5;stroke-linecap:round;stroke-linejoin:round;stroke-miterlimit:10;" d="
				M56.175,25.423l0.18-0.84c0.141-0.657,1.031-1.172,2.026-1.172"/>
		</g>
	</g>
	
		<path id="XMLID_84_" style="fill:#FFFFFF;stroke:#34518C;stroke-width:0.5;stroke-linecap:round;stroke-linejoin:round;stroke-miterlimit:10;" d="
		M106.17,25.754H87.81v0.023c0,0.358,0.291,0.649,0.649,0.649h17.062c0.358,0,0.649-0.291,0.649-0.649L106.17,25.754L106.17,25.754z
		"/>
	
		<path id="XMLID_85_" style="fill:#C9EBFC;stroke:#34518C;stroke-width:0.5;stroke-linecap:round;stroke-linejoin:round;stroke-miterlimit:10;" d="
		M102.673,17.261H91.308c-1.109,0-2.009,0.899-2.009,2.009v7.157h15.382v-7.157C104.681,18.16,103.782,17.261,102.673,17.261z"/>
	
		<circle id="XMLID_88_" style="fill:#FFFFFF;stroke:#34518C;stroke-width:0.5;stroke-linecap:round;stroke-linejoin:round;stroke-miterlimit:10;" cx="96.99" cy="22.244" r="0.745"/>
	<path id="XMLID_96_" style="fill:#E8E4E4;" d="M96.99,21.652c-0.273,0-0.504,0.186-0.572,0.438c0.158-0.131,0.36-0.208,0.572-0.208
		s0.414,0.077,0.572,0.208C97.494,21.838,97.263,21.652,96.99,21.652z"/>
	<path id="XMLID_97_" style="fill:#E8E4E4;" d="M104.529,26.274v-7.943c0-0.484-0.377-0.883-0.853-0.916
		c0.253,0.224,0.413,0.552,0.413,0.916v7.943H104.529z"/>
	<path id="XMLID_91_" style="fill:#E8E4E4;" d="M89.452,26.274v-7.943c0-0.484,0.377-0.883,0.853-0.916
		c-0.253,0.224-0.413,0.552-0.413,0.916v7.943H89.452z"/>
	
		<line id="XMLID_115_" style="fill:none;stroke:#34518C;stroke-width:0.5;stroke-linecap:round;stroke-linejoin:round;stroke-miterlimit:10;" x1="108.086" y1="24.106" x2="108.086" y2="26.426"/>
	<g id="XMLID_124_">
		
			<rect id="XMLID_111_" x="50.294" y="22.808" style="fill:#FFFFFF;stroke:#34518C;stroke-width:0.5;stroke-linecap:round;stroke-linejoin:round;stroke-miterlimit:10;" width="3.012" height="3.619"/>
		<rect id="XMLID_127_" x="52.765" y="22.96" style="fill:#E8E4E4;" width="0.389" height="3.314"/>
		<g id="XMLID_118_">
			
				<path id="XMLID_123_" style="fill:#A6D495;stroke:#34518C;stroke-width:0.5;stroke-linecap:round;stroke-linejoin:round;stroke-miterlimit:10;" d="
				M51.8,17.859l-0.954,2.114c-0.348,0.77-0.314,1.658,0.091,2.399l0.238,0.436H51.8h0.626l0.238-0.436
				c0.404-0.741,0.438-1.63,0.091-2.399L51.8,17.859z"/>
			
				<line id="XMLID_120_" style="fill:none;stroke:#34518C;stroke-width:0.5;stroke-linecap:round;stroke-linejoin:round;stroke-miterlimit:10;" x1="51.8" y1="22.808" x2="51.8" y2="20.518"/>
			
				<line id="XMLID_122_" style="fill:none;stroke:#34518C;stroke-width:0.5;stroke-linecap:round;stroke-linejoin:round;stroke-miterlimit:10;" x1="51.8" y1="21.448" x2="52.25" y2="20.998"/>
		</g>
	</g>
	<g id="XMLID_132_">
		
			<circle id="XMLID_125_" style="fill:#F69E9F;stroke:#34518C;stroke-width:0.5;stroke-linecap:round;stroke-linejoin:round;stroke-miterlimit:10;" cx="91.871" cy="10.89" r="3.249"/>
		
			<circle id="XMLID_126_" style="fill:#FFFFFF;stroke:#34518C;stroke-width:0.5;stroke-linecap:round;stroke-linejoin:round;stroke-miterlimit:10;" cx="91.871" cy="10.89" r="2.284"/>
		
			<line id="XMLID_130_" style="fill:none;stroke:#34518C;stroke-width:0.5;stroke-linecap:round;stroke-linejoin:round;stroke-miterlimit:10;" x1="91.871" y1="10.89" x2="91.871" y2="9.722"/>
		
			<line id="XMLID_131_" style="fill:none;stroke:#34518C;stroke-width:0.5;stroke-linecap:round;stroke-linejoin:round;stroke-miterlimit:10;" x1="91.871" y1="10.889" x2="92.455" y2="10.889"/>
		<g id="XMLID_129_">
			
				<circle style="fill:none;stroke:#34518C;stroke-width:0.5;stroke-linecap:round;stroke-linejoin:round;stroke-dasharray:0,13.3534;" cx="91.871" cy="10.89" r="1.701"/>
		</g>
	</g>
	
		<path id="XMLID_133_" style="fill:#FFFFFF;stroke:#34518C;stroke-width:0.5;stroke-linecap:round;stroke-linejoin:round;stroke-miterlimit:10;" d="
		M110.499,25.266h-0.196c-0.619,0-1.12,0.502-1.12,1.12v0.04h2.437v-0.04C111.619,25.768,111.118,25.266,110.499,25.266z"/>
	
		<path id="XMLID_134_" style="fill:#FDF6B0;stroke:#34518C;stroke-width:0.5;stroke-linecap:round;stroke-linejoin:round;stroke-miterlimit:10;" d="
		M109.237,25.754h2.327v-0.188c0-0.378-0.307-0.685-0.685-0.685h-0.957c-0.378,0-0.685,0.307-0.685,0.685L109.237,25.754
		L109.237,25.754z"/>
	<g id="XMLID_142_">
		
			<rect id="XMLID_140_" x="82.048" y="19.037" style="fill:#F498C0;stroke:#34518C;stroke-width:0.5;stroke-linecap:round;stroke-linejoin:round;stroke-miterlimit:10;" width="0.736" height="4.202"/>
		
			<path id="XMLID_141_" style="fill:#FFFFFF;stroke:#34518C;stroke-width:0.5;stroke-linecap:round;stroke-linejoin:round;stroke-miterlimit:10;" d="
			M82.429,18.271h-0.025c-0.196,0-0.355,0.159-0.355,0.355v0.411h0.736v-0.411C82.784,18.43,82.625,18.271,82.429,18.271z"/>
		
			<polygon id="XMLID_143_" style="fill:#FFFFFF;stroke:#34518C;stroke-width:0.5;stroke-linecap:round;stroke-linejoin:round;stroke-miterlimit:10;" points="
			82.048,23.239 82.416,23.774 82.784,23.239 		"/>
	</g>
	<g id="XMLID_146_">
		
			<rect id="XMLID_149_" x="84.108" y="18.989" transform="matrix(-0.9724 -0.2332 0.2332 -0.9724 161.7045 61.2985)" style="fill:#61C3AE;stroke:#34518C;stroke-width:0.5;stroke-linecap:round;stroke-linejoin:round;stroke-miterlimit:10;" width="0.736" height="4.202"/>
		
			<path id="XMLID_148_" style="fill:#FFFFFF;stroke:#34518C;stroke-width:0.5;stroke-linecap:round;stroke-linejoin:round;stroke-miterlimit:10;" d="
			M85.154,18.303L85.139,18.3c-0.116-0.028-0.233,0.044-0.261,0.16l-0.128,0.534l0.436,0.105l0.128-0.534
			C85.342,18.448,85.27,18.331,85.154,18.303z"/>
		
			<polygon id="XMLID_147_" style="fill:#FFFFFF;stroke:#34518C;stroke-width:0.5;stroke-linecap:round;stroke-linejoin:round;stroke-miterlimit:10;" points="
			83.63,23.047 83.863,23.653 84.346,23.219 		"/>
		
			<polyline id="XMLID_144_" style="fill:none;stroke:#34518C;stroke-width:0.5;stroke-linecap:round;stroke-linejoin:round;stroke-miterlimit:10;" points="
			85.245,19.47 85.623,19.561 85.197,21.338 		"/>
	</g>
	<g id="XMLID_137_">
		
			<rect id="XMLID_135_" x="81.667" y="22.989" style="fill:#65C3EF;stroke:#34518C;stroke-width:0.5;stroke-linecap:round;stroke-linejoin:round;stroke-miterlimit:10;" width="3.554" height="3.438"/>
		
			<path id="XMLID_136_" style="fill:#65C3EF;stroke:#34518C;stroke-width:0.5;stroke-linecap:round;stroke-linejoin:round;stroke-miterlimit:10;" d="
			M85.306,22.323h-3.723c-0.178,0-0.321,0.144-0.321,0.321v0.023c0,0.178,0.144,0.321,0.321,0.321h3.723
			c0.178,0,0.321-0.144,0.321-0.321v-0.023C85.627,22.467,85.483,22.323,85.306,22.323z"/>
		<rect id="XMLID_145_" x="81.82" y="23.14" style="fill:#E8E4E4;" width="3.249" height="0.316"/>
	</g>
	<g id="XMLID_153_">
		
			<path id="XMLID_11_" style="fill:none;stroke:#34518C;stroke-width:0.5;stroke-linecap:round;stroke-linejoin:round;stroke-miterlimit:10;" d="
			M52.807,36.542"/>
		
			<path id="XMLID_10_" style="fill:none;stroke:#34518C;stroke-width:0.5;stroke-linecap:round;stroke-linejoin:round;stroke-miterlimit:10;" d="
			M52.807,38.116"/>
	</g>
	
		<path id="XMLID_170_" style="fill:#FFFFFF;stroke:#34518C;stroke-width:0.5;stroke-linecap:round;stroke-linejoin:round;stroke-miterlimit:10;" d="
		M112.885,13.086c-1.132,0-2.049,0.917-2.049,2.049c0,0.03,0.001,0.06,0.002,0.091l-1.017,0.606l1.18,0.111
		c0.313,0.73,1.039,1.241,1.883,1.241c1.132,0,2.049-0.917,2.049-2.049C114.934,14.003,114.017,13.086,112.885,13.086z"/>
	<g id="XMLID_168_">
		<circle id="XMLID_157_" style="fill:#34518C;" cx="112.022" cy="15.209" r="0.223"/>
		<circle id="XMLID_169_" style="fill:#34518C;" cx="112.898" cy="15.209" r="0.223"/>
		<circle id="XMLID_171_" style="fill:#34518C;" cx="113.773" cy="15.209" r="0.223"/>
	</g>
	<g id="XMLID_54_">
		
			<path id="XMLID_48_" style="fill:#65C3EF;stroke:#34518C;stroke-width:0.5;stroke-linecap:round;stroke-linejoin:round;stroke-miterlimit:10;" d="
			M56.797,17.108H56.77c-0.208,0-0.376-0.168-0.376-0.376v-1.685c0-0.208,0.168-0.376,0.376-0.376h0.027
			c0.208,0,0.376,0.168,0.376,0.376v1.685C57.173,16.94,57.005,17.108,56.797,17.108z"/>
		
			<path id="XMLID_55_" style="fill:#65C3EF;stroke:#34518C;stroke-width:0.5;stroke-linecap:round;stroke-linejoin:round;stroke-miterlimit:10;" d="
			M65.546,17.108h-0.027c-0.208,0-0.376-0.168-0.376-0.376v-1.685c0-0.208,0.168-0.376,0.376-0.376h0.027
			c0.208,0,0.376,0.168,0.376,0.376v1.685C65.922,16.94,65.753,17.108,65.546,17.108z"/>
	</g>
	
		<path id="XMLID_50_" style="fill:#F7AB6F;stroke:#34518C;stroke-width:0.5;stroke-linecap:round;stroke-linejoin:round;stroke-miterlimit:10;" d="
		M61.158,10.737c-0.539,0-1.055,0.099-1.531,0.279c-0.43-0.332-0.771-0.465-0.771-0.465c0.239,0.148,0.286,0.479,0.292,0.68
		c-0.059,0.031-0.116,0.063-0.173,0.096l-0.407-0.167v0.436c-1.058,0.79-1.743,2.559-1.743,3.981c0,2.392,1.94,3.824,4.332,3.824
		s4.332-1.432,4.332-3.824S63.551,10.737,61.158,10.737z"/>
	
		<rect id="XMLID_17_" x="59.864" y="18.606" style="fill:#FDF6B0;stroke:#34518C;stroke-width:0.5;stroke-linecap:round;stroke-linejoin:round;stroke-miterlimit:10;" width="2.589" height="1.624"/>
	
		<path id="XMLID_57_" style="fill:none;stroke:#34518C;stroke-width:0.5;stroke-linecap:round;stroke-linejoin:round;stroke-miterlimit:10;" d="
		M59.044,12.476c0,0-0.096,0.479,0.181,0.608l0.308-0.568"/>
	<g id="XMLID_60_">
		<path id="XMLID_61_" style="fill:#E8E4E4;" d="M62.602,18.577c0.002,0.009,0.003,0.019,0.003,0.029v0.45
			c1.288-0.366,2.221-1.229,2.576-2.394C64.67,17.597,63.761,18.272,62.602,18.577z"/>
		<path id="XMLID_65_" style="fill:#E8E4E4;" d="M59.711,18.606c0-0.01,0.001-0.02,0.003-0.029c-1.16-0.305-2.068-0.98-2.579-1.915
			c0.355,1.165,1.288,2.028,2.576,2.394L59.711,18.606L59.711,18.606z"/>
	</g>
	
		<path id="XMLID_173_" style="fill:none;stroke:#34518C;stroke-width:0.5;stroke-linecap:round;stroke-linejoin:round;stroke-miterlimit:10;" d="
		M56.784,14.672v-0.794c0-2.424,1.965-4.388,4.388-4.388l0,0c2.424,0,4.388,1.965,4.388,4.388v0.794"/>
	
		<path id="XMLID_172_" style="fill:none;stroke:#34518C;stroke-width:0.5;stroke-linecap:round;stroke-linejoin:round;stroke-miterlimit:10;" d="
		M56.784,17.108v1.566c0,0.325,0.263,0.588,0.588,0.588h0.284"/>
	
		<path id="XMLID_174_" style="fill:#34518C;stroke:#34518C;stroke-width:0.5;stroke-linecap:round;stroke-linejoin:round;stroke-miterlimit:10;" d="
		M58.261,19.694h-0.298c-0.17,0-0.308-0.138-0.308-0.308v-0.022c0-0.17,0.138-0.308,0.308-0.308h0.298
		c0.17,0,0.308,0.138,0.308,0.308v0.022C58.569,19.556,58.431,19.694,58.261,19.694z"/>
</g>
<g>
	<g>
		<g>
			<path style="fill:#68C3EE;" d="M75.348,5.921l1.491,0.039c-0.098,0.772-0.365,1.368-0.802,1.789
				c-0.436,0.421-1.005,0.632-1.707,0.632c-0.713,0-1.311-0.239-1.791-0.718c-0.481-0.478-0.721-1.072-0.721-1.781
				c0-0.713,0.245-1.313,0.735-1.8s1.094-0.73,1.812-0.73c0.706,0,1.296,0.239,1.768,0.716c0.328,0.33,0.559,0.789,0.695,1.379
				l-1.526,0.102c-0.171-0.524-0.495-0.786-0.972-0.786c-0.304,0-0.555,0.105-0.752,0.316c-0.198,0.211-0.296,0.478-0.296,0.804
				c0,0.313,0.097,0.572,0.291,0.777c0.194,0.205,0.44,0.307,0.737,0.307c0.302,0,0.542-0.09,0.721-0.27
				C75.209,6.516,75.315,6.258,75.348,5.921z"/>
			<path style="fill:#35528D;" d="M74.33,8.605c-0.772,0-1.428-0.264-1.95-0.783c-0.522-0.52-0.787-1.172-0.787-1.94
				c0-0.772,0.27-1.431,0.801-1.959c0.531-0.528,1.194-0.795,1.97-0.795c0.765,0,1.414,0.263,1.928,0.782
				c0.356,0.358,0.609,0.858,0.754,1.487c0.015,0.064,0.001,0.131-0.039,0.184c-0.039,0.053-0.1,0.086-0.165,0.09l-0.688,0.046
				l0.69,0.018c0.064,0.002,0.123,0.03,0.165,0.078c0.041,0.048,0.06,0.112,0.052,0.175c-0.104,0.82-0.397,1.467-0.869,1.923
				C75.716,8.371,75.089,8.605,74.33,8.605z M74.365,3.577c-0.663,0-1.204,0.217-1.654,0.664c-0.45,0.447-0.669,0.983-0.669,1.641
				c0,0.652,0.214,1.183,0.655,1.621c0.441,0.439,0.975,0.652,1.633,0.652c0.647,0,1.155-0.186,1.551-0.569
				c0.35-0.338,0.583-0.811,0.696-1.41L75.541,6.15c-0.058,0.291-0.176,0.527-0.351,0.704c-0.222,0.223-0.518,0.336-0.88,0.336
				c-0.36,0-0.662-0.127-0.9-0.377c-0.234-0.247-0.353-0.56-0.353-0.932c0-0.383,0.12-0.705,0.357-0.957
				c0.241-0.256,0.549-0.387,0.916-0.387c0.371,0,0.852,0.14,1.124,0.775l1.088-0.072c-0.129-0.424-0.319-0.765-0.567-1.015
				C75.541,3.79,75.015,3.577,74.365,3.577z M74.33,4.988c-0.241,0-0.434,0.08-0.589,0.245c-0.159,0.169-0.236,0.381-0.236,0.65
				c0,0.256,0.075,0.46,0.23,0.623c0.151,0.159,0.339,0.237,0.574,0.237c0.242,0,0.425-0.067,0.562-0.204
				c0.141-0.142,0.226-0.356,0.253-0.639c0.006-0.06,0.035-0.113,0.078-0.149c-0.052-0.026-0.094-0.073-0.113-0.131
				C74.904,5.053,74.567,4.988,74.33,4.988z"/>
		</g>
		<g>
			<path style="fill:#68C3EE;" d="M79.312,5.728v1.284h-0.474v1.249h-1.425V5.289c0-0.559,0.172-1.022,0.517-1.388
				c0.345-0.366,0.78-0.549,1.304-0.549c0.578,0,1.061,0.249,1.449,0.747l-1.168,0.852c-0.066-0.183-0.181-0.274-0.347-0.274
				c-0.22,0-0.33,0.152-0.33,0.456v0.593L79.312,5.728L79.312,5.728z"/>
			<path style="fill:#35528D;" d="M78.839,8.486h-1.425c-0.124,0-0.224-0.1-0.224-0.224V5.289c0-0.616,0.195-1.134,0.579-1.542
				c0.388-0.411,0.881-0.62,1.467-0.62c0.648,0,1.195,0.28,1.626,0.834c0.037,0.048,0.054,0.109,0.045,0.169
				c-0.008,0.06-0.041,0.114-0.09,0.15l-1.168,0.852c-0.057,0.042-0.131,0.054-0.198,0.033c-0.068-0.021-0.122-0.072-0.145-0.139
				c-0.045-0.125-0.095-0.125-0.136-0.125c-0.042,0-0.105,0-0.105,0.232v0.368h0.249c0.124,0,0.224,0.1,0.224,0.224v1.284
				c0,0.124-0.1,0.224-0.224,0.224h-0.249v1.024C79.063,8.385,78.963,8.486,78.839,8.486z M77.639,8.037h0.976V7.012
				c0-0.124,0.1-0.224,0.224-0.224h0.249V5.953h-0.249c-0.124,0-0.224-0.1-0.224-0.224V5.135c0-0.632,0.424-0.681,0.554-0.681
				c0.166,0,0.306,0.06,0.412,0.173l0.775-0.565c-0.315-0.326-0.683-0.485-1.12-0.485c-0.464,0-0.836,0.157-1.14,0.479
				c-0.307,0.326-0.456,0.729-0.456,1.234L77.639,8.037L77.639,8.037z"/>
		</g>
		<g>
			<path style="fill:#68C3EE;" d="M82.53,6.605V5.349c0.288,0,0.432-0.11,0.432-0.33c0-0.201-0.11-0.302-0.33-0.302
				c-0.222,0-0.333,0.138-0.333,0.414v3.13h-1.424V5.279c0-0.309,0.031-0.562,0.093-0.76c0.062-0.198,0.168-0.382,0.317-0.552
				c0.168-0.19,0.379-0.339,0.632-0.449c0.253-0.11,0.513-0.165,0.783-0.165c0.487,0,0.895,0.164,1.226,0.491
				s0.496,0.733,0.496,1.218c0,0.47-0.148,0.851-0.446,1.144c-0.271,0.269-0.681,0.404-1.228,0.404L82.53,6.605z"/>
			<path style="fill:#35528D;" d="M82.298,8.486h-1.424c-0.124,0-0.224-0.1-0.224-0.224V5.279c0-0.335,0.034-0.605,0.103-0.827
				c0.071-0.227,0.193-0.44,0.363-0.633c0.19-0.214,0.429-0.384,0.711-0.507c0.28-0.122,0.573-0.184,0.872-0.184
				c0.545,0,1.011,0.187,1.384,0.556c0.374,0.37,0.563,0.833,0.563,1.377c0,0.53-0.172,0.969-0.513,1.304
				c-0.313,0.31-0.779,0.468-1.385,0.468L82.526,6.83c-0.001,0-0.002,0-0.003,0v1.432C82.523,8.385,82.422,8.486,82.298,8.486z
				 M81.098,8.037h0.976V5.132c0-0.4,0.209-0.639,0.558-0.639c0.342,0,0.554,0.202,0.554,0.526c0,0.112-0.035,0.441-0.432,0.531
				v0.834c0.478,0,0.837-0.114,1.063-0.338c0.255-0.251,0.379-0.573,0.379-0.984c0-0.426-0.141-0.772-0.43-1.058
				c-0.29-0.287-0.639-0.426-1.068-0.426c-0.237,0-0.47,0.049-0.693,0.146c-0.221,0.096-0.408,0.228-0.553,0.392
				c-0.127,0.145-0.219,0.304-0.271,0.471c-0.055,0.175-0.083,0.408-0.083,0.692L81.098,8.037L81.098,8.037z M82.632,4.942
				c-0.06,0-0.108,0-0.109,0.183c0.212-0.005,0.214-0.053,0.214-0.105c0-0.039-0.007-0.058-0.01-0.061l0,0
				C82.727,4.958,82.706,4.942,82.632,4.942z"/>
		</g>
		<g>
			<path style="fill:#68C3EE;" d="M87.095,4.847v3.414H85.67V4.847h-1.091V3.472h3.603v1.376L87.095,4.847L87.095,4.847z"/>
			<path style="fill:#35528D;" d="M87.095,8.486H85.67c-0.124,0-0.224-0.1-0.224-0.224V5.072h-0.867c-0.124,0-0.224-0.1-0.224-0.224
				V3.472c0-0.124,0.101-0.224,0.224-0.224h3.603c0.124,0,0.224,0.1,0.224,0.224v1.376c0,0.124-0.101,0.224-0.224,0.224h-0.863
				v3.189C87.319,8.385,87.218,8.486,87.095,8.486z M85.895,8.037h0.976V4.847c0-0.124,0.101-0.224,0.224-0.224h0.863V3.696h-3.154
				v0.926h0.867c0.124,0,0.224,0.1,0.224,0.224V8.037L85.895,8.037z"/>
		</g>
	</g>
</g>
</svg>
