<?xml version="1.0" encoding="iso-8859-1"?>
<!-- Generator: Adobe Illustrator 18.0.0, SVG Export Plug-In . SVG Version: 6.00 Build 0)  -->
<!DOCTYPE svg PUBLIC "-//W3C//DTD SVG 1.1//EN" "http://www.w3.org/Graphics/SVG/1.1/DTD/svg11.dtd">
<svg version="1.1" id="Calque_1" xmlns="http://www.w3.org/2000/svg" xmlns:xlink="http://www.w3.org/1999/xlink" x="0px" y="0px"
	 viewBox="0 0 500 200" style="enable-background:new 0 0 500 200;" xml:space="preserve">
<g id="XMLID_22_">
	<g id="XMLID_107_">
		
			<path id="XMLID_92_" style="fill:#61C3AE;stroke:#34518C;stroke-width:3;stroke-linecap:round;stroke-linejoin:round;stroke-miterlimit:10;" d="
			M439.746,179.618h-71.072V165.7c0-18.949,15.361-34.31,34.31-34.31h2.452c18.949,0,34.31,15.361,34.31,34.31V179.618z"/>
		<path id="XMLID_121_" style="fill:#E8E4E4;" d="M401.091,132.342c2.434,3.742,7.496,8.672,17.27,8.672
			c5.063,0,9.035-1.59,11.824-4.73c-3.556-2.583-7.744-3.943-12.173-3.943H401.091z"/>
		
			<rect id="XMLID_105_" x="396.847" y="121.364" style="fill:#FDF6B0;stroke:#34518C;stroke-width:3;stroke-linecap:round;stroke-linejoin:round;stroke-miterlimit:10;" width="14.726" height="13.009"/>
		
			<rect id="XMLID_93_" x="396.119" y="116.287" style="fill:#FDF6B0;stroke:#34518C;stroke-width:3;stroke-linecap:round;stroke-linejoin:round;stroke-miterlimit:10;" width="16.182" height="10.153"/>
		
			<circle id="XMLID_90_" style="fill:#FDF6B0;stroke:#34518C;stroke-width:3;stroke-linecap:round;stroke-linejoin:round;stroke-miterlimit:10;" cx="404.21" cy="95.029" r="25.162"/>
		
			<path id="XMLID_99_" style="fill:#F7AB6F;stroke:#34518C;stroke-width:3;stroke-linecap:round;stroke-linejoin:round;stroke-miterlimit:10;" d="
			M424.982,98.36v4.034c0,0.843-0.411,1.623-1.081,2.051l-8.78,5.605c-1.463,0.934-3.309-0.844-3.309-2.685v-0.12
			c0-1.314-0.983-2.38-2.195-2.38h-5.406h-5.406c-1.212,0-2.195,1.065-2.195,2.38v0.12c0,1.841-1.846,3.619-3.309,2.685l-8.78-5.605
			c-0.67-0.428-1.081-1.208-1.081-2.051V98.36c0-1.314-0.983-2.38-2.195-2.38l0,0c-1.212,0-2.195,1.065-2.195,2.38v17.244
			c0,0.446,0.116,0.883,0.334,1.261l6.339,10.994c0.401,0.696,1.105,1.118,1.861,1.118h16.629h16.628
			c0.757,0,1.46-0.423,1.861-1.118l6.339-10.994c0.218-0.378,0.334-0.815,0.334-1.261V98.36c0-1.314-0.983-2.38-2.195-2.38l0,0
			C425.964,95.981,424.982,97.046,424.982,98.36z"/>
		
			<path id="XMLID_102_" style="fill:#F7AB6F;stroke:#34518C;stroke-width:3;stroke-linecap:round;stroke-linejoin:round;stroke-miterlimit:10;" d="
			M422.267,73.136l3.048,19.264h3.934c0,0,1.777-7.138,2.2-12.924C431.872,73.69,422.267,73.136,422.267,73.136z"/>
		<g id="XMLID_98_">
			
				<path id="XMLID_95_" style="fill:#65C3EF;stroke:#34518C;stroke-width:3;stroke-linecap:round;stroke-linejoin:round;stroke-miterlimit:10;" d="
				M386.974,99.631h9.009c1,0,1.948-0.448,2.583-1.221l2.642-3.216c0.491-0.598,0.76-1.348,0.76-2.121v0
				c0-1.544-1.058-2.888-2.56-3.249l-3.769-0.907c-2.623-0.631-5.37-0.522-7.934,0.315l-2.516,0.821
				c-1.661,0.542-2.624,2.273-2.209,3.971l0.748,3.059C384.093,98.579,385.434,99.631,386.974,99.631z"/>
			
				<path id="XMLID_100_" style="fill:#65C3EF;stroke:#34518C;stroke-width:3;stroke-linecap:round;stroke-linejoin:round;stroke-miterlimit:10;" d="
				M421.445,99.631h-9.009c-1,0-1.948-0.448-2.583-1.221l-2.642-3.216c-0.491-0.598-0.76-1.348-0.76-2.121v0
				c0-1.544,1.058-2.888,2.56-3.249l3.769-0.907c2.623-0.631,5.37-0.522,7.934,0.315l2.516,0.821
				c1.661,0.542,2.624,2.273,2.209,3.971l-0.748,3.059C424.326,98.579,422.985,99.631,421.445,99.631z"/>
			<g id="XMLID_119_">
				<path id="XMLID_116_" style="fill:#C9EBFC;" d="M409.235,90.749c-1.078,0.259-1.831,1.215-1.831,2.324
					c0,0.09,0.006,0.181,0.017,0.272c5.74-0.279,10.842-1.294,14.238-2.804l-1.24-0.405c-1.372-0.448-2.799-0.673-4.227-0.673
					c-1.069,0-2.139,0.126-3.188,0.379L409.235,90.749z"/>
				<path id="XMLID_128_" style="fill:#C9EBFC;" d="M400.998,93.345c0.012-0.091,0.017-0.182,0.017-0.272
					c0-1.109-0.753-2.065-1.831-2.324l-3.768-0.907c-2.452-0.591-5.018-0.489-7.416,0.294l-1.24,0.405
					C390.155,92.051,395.258,93.066,400.998,93.345z"/>
			</g>
		</g>
		
			<path id="XMLID_106_" style="fill:#34518C;stroke:#34518C;stroke-width:3;stroke-linecap:round;stroke-linejoin:round;stroke-miterlimit:10;" d="
			M404.21,91.618c0.964,0,1.745,0.781,1.745,1.745h0.523c-0.009-0.097-0.025-0.192-0.025-0.29v0c0-1.013,0.461-1.933,1.198-2.553
			c-0.819-0.99-2.056-1.62-3.441-1.62c-1.385,0-2.622,0.631-3.441,1.62c0.737,0.62,1.198,1.54,1.198,2.553v0
			c0,0.098-0.017,0.193-0.025,0.29h0.523C402.465,92.399,403.246,91.618,404.21,91.618z"/>
		
			<rect id="XMLID_104_" x="425.536" y="92.4" style="fill:#34518C;stroke:#34518C;stroke-width:3;stroke-linecap:round;stroke-linejoin:round;stroke-miterlimit:10;" width="3.836" height="4.383"/>
		
			<rect id="XMLID_103_" x="399.901" y="108.845" style="fill:#FDF6B0;stroke:#34518C;stroke-width:3;stroke-linecap:round;stroke-linejoin:round;stroke-miterlimit:10;" width="8.617" height="2.577"/>
		<path id="XMLID_112_" style="fill:#E8E4E4;" d="M380.396,90.682c0.011,0.124,0.022,0.239,0.032,0.344l2.21,0.303l1.208-8.829
			c0.037-0.265,0.182-0.502,0.402-0.654c0.22-0.152,0.494-0.204,0.754-0.145c0.287,0.066,28.626,6.452,45.259,0.094
			c0.105-0.856,0.185-1.657,0.238-2.388c0.069-0.941-0.184-1.748-0.771-2.456l-3.007-0.411c-0.381-0.052-0.692-0.328-0.791-0.698
			c-0.095-0.355,0.024-0.731,0.301-0.968c-1.047-0.341-2.074-0.539-2.829-0.652l0.641,4.049c0.066,0.418-0.152,0.83-0.535,1.01
			c-0.384,0.181-0.84,0.085-1.119-0.233c-4.601-5.23-11.227-8.23-18.179-8.23C392.479,70.818,382.483,79.165,380.396,90.682z"/>
		
			<path id="XMLID_94_" style="fill:#F7AB6F;stroke:#34518C;stroke-width:3;stroke-linecap:round;stroke-linejoin:round;stroke-miterlimit:10;" d="
			M379.518,92.4h3.934v-9.862c0,0,41.829,3.766,52.934-12.671h-12.216l4.125-4.187c0,0-37.228-6.437-44.632,5.349
			c0,0-6.769,2.661-6.346,8.447C377.741,85.262,379.518,92.4,379.518,92.4z"/>
		
			<rect id="XMLID_101_" x="379.047" y="92.4" style="fill:#34518C;stroke:#34518C;stroke-width:3;stroke-linecap:round;stroke-linejoin:round;stroke-miterlimit:10;" width="3.836" height="4.383"/>
		
			<path id="XMLID_117_" style="fill:none;stroke:#34518C;stroke-width:3;stroke-linecap:round;stroke-linejoin:round;stroke-miterlimit:10;" d="
			M383.664,71.029c-1.083,1.907-0.78,3.975-0.78,3.975"/>
	</g>
	
		<path id="XMLID_3_" style="fill:#FFFFFF;stroke:#34518C;stroke-width:3;stroke-linecap:round;stroke-linejoin:round;stroke-miterlimit:10;" d="
		M259.693,147.646h-92.46c-9.296,0-16.831-7.536-16.831-16.831V77.593c0-9.296,7.536-16.831,16.831-16.831h92.46
		c9.296,0,16.831,7.536,16.831,16.831v53.222C276.524,140.11,268.988,147.646,259.693,147.646z"/>
	
		<path id="XMLID_6_" style="fill:#C9EBFC;stroke:#34518C;stroke-width:3;stroke-linecap:round;stroke-linejoin:round;stroke-miterlimit:10;" d="
		M150.402,131.39v7.287c0,4.953,4.015,8.969,8.969,8.969h108.184c4.953,0,8.969-4.015,8.969-8.969v-7.287H150.402z"/>
	
		<rect id="XMLID_5_" x="201.194" y="147.646" style="fill:#FFFFFF;stroke:#34518C;stroke-width:3;stroke-linecap:round;stroke-linejoin:round;stroke-miterlimit:10;" width="22.923" height="13.318"/>
	
		<path id="XMLID_16_" style="fill:#FFFFFF;stroke:#34518C;stroke-width:3;stroke-linecap:round;stroke-linejoin:round;stroke-miterlimit:10;" d="
		M229.676,165.165h-34.041c-1.12,0-2.028-0.908-2.028-2.028v-0.145c0-1.12,0.908-2.028,2.028-2.028h34.041
		c1.12,0,2.028,0.908,2.028,2.028v0.145C231.705,164.257,230.797,165.165,229.676,165.165z"/>
	<g id="XMLID_64_">
		<rect id="XMLID_71_" x="156.748" y="67.108" style="fill:#F5FBFE;" width="113.43" height="57.936"/>
		
			<rect id="XMLID_70_" x="156.748" y="67.108" style="fill:#F5FBFE;stroke:#34518C;stroke-width:3;stroke-linecap:round;stroke-linejoin:round;stroke-miterlimit:10;" width="113.43" height="57.936"/>
	</g>
	<rect id="XMLID_56_" x="49.79" y="165.165" style="fill:#E8E4E4;" width="435.223" height="17.435"/>
	
		<line id="XMLID_32_" style="fill:none;stroke:#34518C;stroke-width:3;stroke-linecap:round;stroke-linejoin:round;stroke-miterlimit:10;" x1="45.572" y1="165.165" x2="489.231" y2="165.165"/>
	
		<line id="XMLID_35_" style="fill:none;stroke:#34518C;stroke-width:3;stroke-linecap:round;stroke-linejoin:round;stroke-miterlimit:10;" x1="0" y1="199.099" x2="202.831" y2="199.099"/>
	
		<path id="XMLID_9_" style="fill:none;stroke:#34518C;stroke-width:3;stroke-linecap:round;stroke-linejoin:round;stroke-miterlimit:10;" d="
		M406.843,199.099"/>
	
		<path id="XMLID_1_" style="fill:none;stroke:#34518C;stroke-width:3;stroke-linecap:round;stroke-linejoin:round;stroke-miterlimit:10;" d="
		M293.643,199.099"/>
	
		<path id="XMLID_8_" style="fill:none;stroke:#34518C;stroke-width:3;stroke-linecap:round;stroke-linejoin:round;stroke-miterlimit:10;" d="
		M500,24.438"/>
	
		<path id="XMLID_4_" style="fill:none;stroke:#34518C;stroke-width:3;stroke-linecap:round;stroke-linejoin:round;stroke-miterlimit:10;" d="
		M242.039,24.438"/>
	
		<path id="XMLID_46_" style="fill:#A6D495;stroke:#34518C;stroke-width:3;stroke-linecap:round;stroke-linejoin:round;stroke-miterlimit:10;" d="
		M167.774,189.897H96.702V160.75c0-18.949,15.361-34.31,34.31-34.31h2.452c18.949,0,34.31,15.361,34.31,34.31V189.897z"/>
	
		<rect id="XMLID_69_" x="156.748" y="67.108" style="fill:#F498C0;stroke:#34518C;stroke-width:3;stroke-linecap:round;stroke-linejoin:round;stroke-miterlimit:10;" width="113.43" height="20.136"/>
	
		<circle id="XMLID_72_" style="fill:#A6D495;stroke:#FFFFFF;stroke-width:3;stroke-linecap:round;stroke-linejoin:round;stroke-miterlimit:10;" cx="171.78" cy="77.176" r="4.187"/>
	
		<line id="XMLID_74_" style="fill:none;stroke:#FFFFFF;stroke-width:3;stroke-linecap:round;stroke-linejoin:round;stroke-miterlimit:10;" x1="187.022" y1="74.934" x2="194.426" y2="74.934"/>
	
		<line id="XMLID_75_" style="fill:none;stroke:#FFFFFF;stroke-width:3;stroke-linecap:round;stroke-linejoin:round;stroke-miterlimit:10;" x1="187.022" y1="79.878" x2="211.136" y2="79.878"/>
	<g id="XMLID_78_">
		<g id="XMLID_76_">
			
				<rect id="XMLID_73_" x="191.715" y="98.202" style="fill:#FFFFFF;stroke:#34518C;stroke-width:3;stroke-linecap:round;stroke-linejoin:round;stroke-miterlimit:10;" width="25.7" height="19.354"/>
			
				<rect id="XMLID_77_" x="191.715" y="95.029" style="fill:#F7AB6F;stroke:#34518C;stroke-width:3;stroke-linecap:round;stroke-linejoin:round;stroke-miterlimit:10;" width="25.7" height="8.725"/>
		</g>
		<g id="XMLID_79_">
			
				<rect id="XMLID_81_" x="230.819" y="98.202" style="fill:#FFFFFF;stroke:#34518C;stroke-width:3;stroke-linecap:round;stroke-linejoin:round;stroke-miterlimit:10;" width="25.7" height="19.354"/>
			
				<rect id="XMLID_80_" x="230.819" y="95.029" style="fill:#65C3EF;stroke:#34518C;stroke-width:3;stroke-linecap:round;stroke-linejoin:round;stroke-miterlimit:10;" width="25.7" height="8.725"/>
		</g>
	</g>
	<rect id="XMLID_87_" x="202.146" y="148.598" style="fill:#E8E4E4;" width="21.02" height="2.686"/>
	
		<circle id="XMLID_62_" style="fill:#FFFFFF;stroke:#34518C;stroke-width:3;stroke-linecap:round;stroke-linejoin:round;stroke-miterlimit:10;" cx="213.463" cy="139.518" r="3.03"/>
	<rect id="XMLID_89_" x="157.7" y="68.06" style="fill:#E8E4E4;" width="111.526" height="3.614"/>
	
		<rect id="XMLID_67_" x="166.716" y="157.655" style="fill:#A6D495;stroke:#34518C;stroke-width:3;stroke-linecap:round;stroke-linejoin:round;stroke-miterlimit:10;" width="24.999" height="10.818"/>
	
		<path id="XMLID_82_" style="fill:#FDF6B0;stroke:#34518C;stroke-width:3;stroke-linecap:round;stroke-linejoin:round;stroke-miterlimit:10;" d="
		M200.819,157.655h-9.104v7.51h16.354v-0.259C208.069,160.901,204.823,157.655,200.819,157.655z"/>
	<g id="XMLID_83_">
		
			<path id="XMLID_30_" style="fill:#65C3EF;stroke:#34518C;stroke-width:3;stroke-linecap:round;stroke-linejoin:round;stroke-miterlimit:10;" d="
			M179.283,199.099H85.192l10.203-47.602c1.542-7.194,9.623-12.471,19.095-12.471h35.495c9.473,0,17.554,5.277,19.095,12.471
			L179.283,199.099z"/>
		<path id="XMLID_86_" style="fill:#E8E4E4;" d="M93.01,198.147h3.402l8.672-41.101c0-0.001,0.001-0.002,0.001-0.003
			c0.987-4.603,7.058-8.208,13.821-8.208h35.495c1.823,0,3.648,0.266,5.352,0.768c-2.253-1.992-5.898-3.279-9.768-3.279H114.49
			c-5.803,0-11.168,3.007-11.96,6.703L93.01,198.147z"/>
		
			<line id="XMLID_59_" style="fill:none;stroke:#34518C;stroke-width:3;stroke-linecap:round;stroke-linejoin:round;stroke-miterlimit:10;" x1="171.895" y1="199.099" x2="165.038" y2="166.997"/>
		<g id="XMLID_58_">
			
				<path id="XMLID_63_" style="fill:none;stroke:#34518C;stroke-width:3;stroke-linecap:round;stroke-linejoin:round;stroke-miterlimit:10;" d="
				M101.093,158.894l1.125-5.247c0.88-4.106,6.442-7.324,12.662-7.324"/>
		</g>
	</g>
	
		<path id="XMLID_84_" style="fill:#FFFFFF;stroke:#34518C;stroke-width:3;stroke-linecap:round;stroke-linejoin:round;stroke-miterlimit:10;" d="
		M413.565,160.964H298.813v0.145c0,2.24,1.816,4.056,4.056,4.056h106.639c2.24,0,4.056-1.816,4.056-4.056V160.964z"/>
	
		<path id="XMLID_85_" style="fill:#C9EBFC;stroke:#34518C;stroke-width:3;stroke-linecap:round;stroke-linejoin:round;stroke-miterlimit:10;" d="
		M391.704,107.879h-71.03c-6.933,0-12.554,5.621-12.554,12.554v44.732h96.138v-44.732
		C404.258,113.499,398.637,107.879,391.704,107.879z"/>
	
		<circle id="XMLID_88_" style="fill:#FFFFFF;stroke:#34518C;stroke-width:3;stroke-linecap:round;stroke-linejoin:round;stroke-miterlimit:10;" cx="356.189" cy="139.026" r="4.654"/>
	<path id="XMLID_96_" style="fill:#E8E4E4;" d="M356.189,135.324c-1.708,0-3.149,1.162-3.574,2.737c0.988-0.819,2.248-1.3,3.574-1.3
		c1.326,0,2.586,0.48,3.574,1.3C359.337,136.486,357.896,135.324,356.189,135.324z"/>
	<path id="XMLID_97_" style="fill:#E8E4E4;" d="M403.306,164.213v-49.645c0-3.028-2.358-5.516-5.334-5.724
		c1.583,1.401,2.584,3.448,2.584,5.724v49.645H403.306z"/>
	<path id="XMLID_91_" style="fill:#E8E4E4;" d="M309.074,164.213v-49.645c0-3.028,2.358-5.516,5.334-5.724
		c-1.583,1.401-2.584,3.448-2.584,5.724v49.645H309.074z"/>
	
		<line id="XMLID_115_" style="fill:none;stroke:#34518C;stroke-width:3;stroke-linecap:round;stroke-linejoin:round;stroke-miterlimit:10;" x1="425.536" y1="150.66" x2="425.536" y2="165.165"/>
	<g id="XMLID_124_">
		
			<rect id="XMLID_111_" x="64.338" y="142.548" style="fill:#FFFFFF;stroke:#34518C;stroke-width:3;stroke-linecap:round;stroke-linejoin:round;stroke-miterlimit:10;" width="18.826" height="22.617"/>
		<rect id="XMLID_127_" x="79.78" y="143.5" style="fill:#E8E4E4;" width="2.432" height="20.713"/>
		<g id="XMLID_118_">
			
				<path id="XMLID_123_" style="fill:#A6D495;stroke:#34518C;stroke-width:3;stroke-linecap:round;stroke-linejoin:round;stroke-miterlimit:10;" d="
				M73.751,111.617l-5.965,13.213c-2.172,4.811-1.962,10.362,0.566,14.996l1.485,2.722h3.913h3.913l1.485-2.722
				c2.528-4.634,2.738-10.185,0.566-14.996L73.751,111.617z"/>
			
				<line id="XMLID_120_" style="fill:none;stroke:#34518C;stroke-width:3;stroke-linecap:round;stroke-linejoin:round;stroke-miterlimit:10;" x1="73.751" y1="142.548" x2="73.751" y2="128.236"/>
			
				<line id="XMLID_122_" style="fill:none;stroke:#34518C;stroke-width:3;stroke-linecap:round;stroke-linejoin:round;stroke-miterlimit:10;" x1="73.751" y1="134.048" x2="76.563" y2="131.236"/>
		</g>
	</g>
	<g id="XMLID_132_">
		
			<circle id="XMLID_125_" style="fill:#F69E9F;stroke:#34518C;stroke-width:3;stroke-linecap:round;stroke-linejoin:round;stroke-miterlimit:10;" cx="324.196" cy="68.06" r="20.306"/>
		
			<circle id="XMLID_126_" style="fill:#FFFFFF;stroke:#34518C;stroke-width:3;stroke-linecap:round;stroke-linejoin:round;stroke-miterlimit:10;" cx="324.196" cy="68.06" r="14.278"/>
		
			<line id="XMLID_130_" style="fill:#FFFFFF;stroke:#34518C;stroke-width:3;stroke-linecap:round;stroke-linejoin:round;stroke-miterlimit:10;" x1="324.196" y1="68.06" x2="324.196" y2="60.762"/>
		
			<line id="XMLID_131_" style="fill:#FFFFFF;stroke:#34518C;stroke-width:3;stroke-linecap:round;stroke-linejoin:round;stroke-miterlimit:10;" x1="324.196" y1="68.059" x2="327.845" y2="68.059"/>
		<g id="XMLID_129_">
			
				<circle style="fill:none;stroke:#34518C;stroke-width:3;stroke-linecap:round;stroke-linejoin:round;stroke-dasharray:0,13.3534;" cx="324.196" cy="68.06" r="10.629"/>
		</g>
	</g>
	
		<path id="XMLID_133_" style="fill:#FFFFFF;stroke:#34518C;stroke-width:3;stroke-linecap:round;stroke-linejoin:round;stroke-miterlimit:10;" d="
		M440.618,157.912h-1.225c-3.867,0-7.002,3.135-7.002,7.002v0.25h15.23v-0.25C447.62,161.047,444.485,157.912,440.618,157.912z"/>
	
		<path id="XMLID_134_" style="fill:#FDF6B0;stroke:#34518C;stroke-width:3;stroke-linecap:round;stroke-linejoin:round;stroke-miterlimit:10;" d="
		M432.734,160.964h14.544v-1.178c0-2.365-1.917-4.282-4.282-4.282h-5.981c-2.365,0-4.282,1.917-4.282,4.282V160.964z"/>
	<g id="XMLID_142_">
		
			<rect id="XMLID_140_" x="262.801" y="118.981" style="fill:#F498C0;stroke:#34518C;stroke-width:3;stroke-linecap:round;stroke-linejoin:round;stroke-miterlimit:10;" width="4.601" height="26.265"/>
		
			<path id="XMLID_141_" style="fill:#FFFFFF;stroke:#34518C;stroke-width:3;stroke-linecap:round;stroke-linejoin:round;stroke-miterlimit:10;" d="
			M265.181,114.193h-0.159c-1.227,0-2.221,0.994-2.221,2.221v2.567h4.601v-2.567C267.402,115.188,266.407,114.193,265.181,114.193z"
			/>
		
			<polygon id="XMLID_143_" style="fill:#FFFFFF;stroke:#34518C;stroke-width:3;stroke-linecap:round;stroke-linejoin:round;stroke-miterlimit:10;" points="
			262.801,145.246 265.101,148.587 267.402,145.246 		"/>
	</g>
	<g id="XMLID_146_">
		
			<rect id="XMLID_149_" x="275.687" y="118.677" transform="matrix(0.9724 0.2332 -0.2332 0.9724 38.3979 -61.1868)" style="fill:#61C3AE;stroke:#34518C;stroke-width:3;stroke-linecap:round;stroke-linejoin:round;stroke-miterlimit:10;" width="4.601" height="26.265"/>
		
			<path id="XMLID_148_" style="fill:#FFFFFF;stroke:#34518C;stroke-width:3;stroke-linecap:round;stroke-linejoin:round;stroke-miterlimit:10;" d="
			M282.213,114.395l-0.094-0.023c-0.727-0.174-1.457,0.274-1.631,1l-0.801,3.34l2.725,0.654l0.801-3.34
			C283.387,115.299,282.94,114.569,282.213,114.395z"/>
		
			<polygon id="XMLID_147_" style="fill:#FFFFFF;stroke:#34518C;stroke-width:3;stroke-linecap:round;stroke-linejoin:round;stroke-miterlimit:10;" points="
			272.688,144.044 274.146,147.829 277.162,145.117 		"/>
		
			<polyline id="XMLID_144_" style="fill:none;stroke:#34518C;stroke-width:3;stroke-linecap:round;stroke-linejoin:round;stroke-miterlimit:10;" points="
			282.78,121.687 285.146,122.254 282.482,133.362 		"/>
	</g>
	<g id="XMLID_137_">
		
			<rect id="XMLID_135_" x="260.421" y="143.679" style="fill:#65C3EF;stroke:#34518C;stroke-width:3;stroke-linecap:round;stroke-linejoin:round;stroke-miterlimit:10;" width="22.21" height="21.486"/>
		
			<path id="XMLID_136_" style="fill:#65C3EF;stroke:#34518C;stroke-width:3;stroke-linecap:round;stroke-linejoin:round;stroke-miterlimit:10;" d="
			M283.161,139.518h-23.269c-1.11,0-2.009,0.899-2.009,2.009v0.144c0,1.11,0.899,2.009,2.009,2.009h23.269
			c1.11,0,2.009-0.899,2.009-2.009v-0.144C285.17,140.417,284.27,139.518,283.161,139.518z"/>
		<rect id="XMLID_145_" x="261.373" y="144.628" style="fill:#E8E4E4;" width="20.306" height="1.972"/>
	</g>
	<g id="XMLID_153_">
		
			<path id="XMLID_11_" style="fill:none;stroke:#34518C;stroke-width:3;stroke-linecap:round;stroke-linejoin:round;stroke-miterlimit:10;" d="
			M80.044,228.388"/>
		
			<path id="XMLID_10_" style="fill:none;stroke:#34518C;stroke-width:3;stroke-linecap:round;stroke-linejoin:round;stroke-miterlimit:10;" d="
			M80.044,238.224"/>
	</g>
	
		<path id="XMLID_170_" style="fill:#FFFFFF;stroke:#34518C;stroke-width:3;stroke-linecap:round;stroke-linejoin:round;stroke-miterlimit:10;" d="
		M455.533,81.787c-7.072,0-12.805,5.733-12.805,12.805c0,0.19,0.006,0.378,0.014,0.566l-6.357,3.785l7.376,0.694
		c1.958,4.563,6.491,7.759,11.771,7.759c7.072,0,12.805-5.733,12.805-12.805C468.337,87.52,462.605,81.787,455.533,81.787z"/>
	<g id="XMLID_168_">
		<circle id="XMLID_157_" style="fill:#34518C;" cx="450.137" cy="95.055" r="1.393"/>
		<circle id="XMLID_169_" style="fill:#34518C;" cx="455.61" cy="95.055" r="1.393"/>
		<circle id="XMLID_171_" style="fill:#34518C;" cx="461.082" cy="95.055" r="1.393"/>
	</g>
	<g id="XMLID_54_">
		
			<path id="XMLID_48_" style="fill:#65C3EF;stroke:#34518C;stroke-width:3;stroke-linecap:round;stroke-linejoin:round;stroke-miterlimit:10;" d="
			M104.982,106.927h-0.168c-1.297,0-2.349-1.051-2.349-2.349V94.046c0-1.297,1.051-2.349,2.349-2.349h0.168
			c1.297,0,2.349,1.052,2.349,2.349v10.533C107.331,105.876,106.279,106.927,104.982,106.927z"/>
		
			<path id="XMLID_55_" style="fill:#65C3EF;stroke:#34518C;stroke-width:3;stroke-linecap:round;stroke-linejoin:round;stroke-miterlimit:10;" d="
			M159.661,106.927h-0.168c-1.297,0-2.349-1.051-2.349-2.349V94.046c0-1.297,1.051-2.349,2.349-2.349h0.168
			c1.297,0,2.349,1.052,2.349,2.349v10.533C162.01,105.876,160.958,106.927,159.661,106.927z"/>
	</g>
	
		<path id="XMLID_50_" style="fill:#F7AB6F;stroke:#34518C;stroke-width:3;stroke-linecap:round;stroke-linejoin:round;stroke-miterlimit:10;" d="
		M132.238,67.108c-3.369,0-6.592,0.62-9.567,1.744c-2.689-2.078-4.817-2.908-4.817-2.908c1.494,0.925,1.79,2.995,1.825,4.253
		c-0.366,0.192-0.726,0.392-1.082,0.6l-2.541-1.046v2.722c-6.612,4.937-10.894,15.995-10.894,24.882
		c0,14.953,12.122,23.902,27.075,23.902c14.953,0,27.075-8.949,27.075-23.902S147.191,67.108,132.238,67.108z"/>
	
		<rect id="XMLID_17_" x="124.147" y="116.287" style="fill:#FDF6B0;stroke:#34518C;stroke-width:3;stroke-linecap:round;stroke-linejoin:round;stroke-miterlimit:10;" width="16.182" height="10.153"/>
	
		<path id="XMLID_57_" style="fill:none;stroke:#34518C;stroke-width:3;stroke-linecap:round;stroke-linejoin:round;stroke-miterlimit:10;" d="
		M119.027,77.977c0,0-0.599,2.992,1.131,3.801l1.922-3.552"/>
	<g id="XMLID_60_">
		<path id="XMLID_61_" style="fill:#E8E4E4;" d="M141.262,116.105c0.011,0.059,0.018,0.12,0.018,0.182v2.81
			c8.05-2.287,13.884-7.682,16.099-14.961C154.188,109.981,148.509,114.202,141.262,116.105z"/>
		<path id="XMLID_65_" style="fill:#E8E4E4;" d="M123.195,116.287c0-0.063,0.007-0.123,0.018-0.182
			c-7.247-1.904-12.926-6.124-16.118-11.969c2.216,7.28,8.049,12.674,16.099,14.961V116.287z"/>
	</g>
	
		<path id="XMLID_173_" style="fill:none;stroke:#34518C;stroke-width:3;stroke-linecap:round;stroke-linejoin:round;stroke-miterlimit:10;" d="
		M104.898,91.697v-4.96c0-15.148,12.28-27.427,27.427-27.427h0c15.148,0,27.427,12.28,27.427,27.427v4.96"/>
	
		<path id="XMLID_172_" style="fill:none;stroke:#34518C;stroke-width:3;stroke-linecap:round;stroke-linejoin:round;stroke-miterlimit:10;" d="
		M104.898,106.927v9.787c0,2.029,1.645,3.674,3.674,3.674h1.773"/>
	
		<path id="XMLID_174_" style="fill:#34518C;stroke:#34518C;stroke-width:3;stroke-linecap:round;stroke-linejoin:round;stroke-miterlimit:10;" d="
		M114.131,123.085h-1.861c-1.063,0-1.925-0.862-1.925-1.925v-0.138c0-1.063,0.862-1.925,1.925-1.925h1.861
		c1.063,0,1.925,0.862,1.925,1.925v0.138C116.056,122.223,115.194,123.085,114.131,123.085z"/>
</g>
<g>
	<g>
		<g>
			<path style="fill:#68C3EE;" d="M220.922,37.007l9.32,0.241c-0.614,4.824-2.284,8.553-5.01,11.184
				c-2.726,2.631-6.283,3.947-10.668,3.947c-4.459,0-8.191-1.495-11.195-4.485c-3.004-2.989-4.506-6.699-4.506-11.129
				c0-4.459,1.532-8.208,4.594-11.249s6.839-4.561,11.326-4.561c4.415,0,8.099,1.491,11.053,4.473
				c2.047,2.061,3.494,4.934,4.342,8.618l-9.539,0.636c-1.068-3.275-3.092-4.912-6.074-4.912c-1.9,0-3.468,0.658-4.703,1.973
				c-1.235,1.316-1.853,2.989-1.853,5.022c0,1.959,0.606,3.578,1.82,4.857c1.214,1.279,2.749,1.919,4.605,1.919
				c1.886,0,3.388-0.563,4.506-1.689C220.058,40.727,220.718,39.112,220.922,37.007z"/>
			<path style="fill:#35528D;" d="M214.563,53.782c-4.822,0-8.922-1.647-12.185-4.892c-3.264-3.249-4.92-7.328-4.92-12.124
				c0-4.826,1.685-8.946,5.009-12.246c3.321-3.297,7.465-4.969,12.315-4.969c4.783,0,8.837,1.645,12.049,4.89
				c2.223,2.239,3.809,5.365,4.713,9.291c0.093,0.4,0.004,0.821-0.241,1.152c-0.245,0.33-0.623,0.536-1.033,0.563l-4.301,0.287
				l4.31,0.111c0.397,0.01,0.771,0.188,1.029,0.489c0.258,0.301,0.377,0.697,0.327,1.091c-0.652,5.126-2.479,9.169-5.429,12.016
				C223.222,52.321,219.305,53.782,214.563,53.782z M214.783,22.357c-4.141,0-7.523,1.359-10.338,4.153
				c-2.813,2.792-4.179,6.146-4.179,10.254c0,4.078,1.339,7.393,4.093,10.134c2.756,2.743,6.094,4.076,10.205,4.076
				c4.046,0,7.217-1.162,9.694-3.554c2.186-2.11,3.646-5.07,4.352-8.813l-6.479-0.167c-0.363,1.82-1.099,3.296-2.196,4.4
				c-1.386,1.395-3.237,2.103-5.502,2.103c-2.248,0-4.14-0.792-5.623-2.357c-1.463-1.543-2.205-3.502-2.205-5.823
				c0-2.391,0.751-4.404,2.233-5.982c1.505-1.603,3.432-2.417,5.727-2.417c2.317,0,5.328,0.872,7.022,4.846l6.798-0.453
				c-0.807-2.653-1.995-4.781-3.545-6.343C222.134,23.685,218.845,22.357,214.783,22.357z M214.563,31.173
				c-1.509,0-2.713,0.501-3.681,1.531c-0.992,1.055-1.473,2.384-1.473,4.061c0,1.601,0.469,2.873,1.435,3.891
				c0.945,0.996,2.118,1.481,3.586,1.481c1.51,0,2.659-0.416,3.51-1.274c0.879-0.885,1.412-2.228,1.583-3.993
				c0.036-0.375,0.219-0.704,0.487-0.933c-0.328-0.164-0.589-0.454-0.709-0.821C218.151,31.582,216.046,31.173,214.563,31.173z"/>
		</g>
		<g>
			<path style="fill:#68C3EE;" d="M245.703,35.801v8.026h-2.96v7.807h-8.904V33.059c0-3.494,1.078-6.385,3.234-8.673
				s4.872-3.432,8.147-3.432c3.611,0,6.63,1.557,9.057,4.671l-7.303,5.328c-0.41-1.141-1.133-1.71-2.171-1.71
				c-1.374,0-2.061,0.951-2.061,2.851V35.8L245.703,35.801L245.703,35.801z"/>
			<path style="fill:#35528D;" d="M242.742,53.036h-8.904c-0.776,0-1.403-0.628-1.403-1.403V33.059c0-3.847,1.216-7.089,3.616-9.635
				c2.422-2.57,5.507-3.873,9.168-3.873c4.049,0,7.468,1.753,10.164,5.211c0.233,0.299,0.335,0.681,0.283,1.057
				c-0.053,0.376-0.255,0.715-0.563,0.939l-7.302,5.328c-0.357,0.26-0.816,0.336-1.24,0.208c-0.423-0.13-0.76-0.451-0.908-0.867
				c-0.281-0.781-0.596-0.781-0.85-0.781c-0.262,0-0.658,0-0.658,1.447v2.303h1.557c0.776,0,1.403,0.628,1.403,1.403v8.026
				c0,0.776-0.628,1.403-1.403,1.403h-1.557v6.403C244.146,52.408,243.517,53.036,242.742,53.036z M235.242,50.229h6.097v-6.403
				c0-0.776,0.628-1.403,1.403-1.403h1.557v-5.219h-1.557c-0.776,0-1.403-0.628-1.403-1.403v-3.706c0-3.947,2.652-4.254,3.465-4.254
				c1.038,0,1.915,0.375,2.575,1.082l4.841-3.533c-1.967-2.037-4.268-3.031-6.999-3.031c-2.898,0-5.228,0.979-7.125,2.991
				c-1.92,2.037-2.853,4.558-2.853,7.711L235.242,50.229L235.242,50.229z"/>
		</g>
		<g>
			<path style="fill:#68C3EE;" d="M265.811,41.282v-7.851c1.798,0,2.697-0.687,2.697-2.061c0-1.257-0.687-1.886-2.061-1.886
				c-1.388,0-2.084,0.863-2.084,2.588v19.56h-8.903V32.994c0-1.929,0.194-3.512,0.581-4.747c0.387-1.235,1.049-2.387,1.984-3.453
				c1.053-1.185,2.368-2.12,3.947-2.807s3.209-1.031,4.891-1.031c3.041,0,5.595,1.024,7.664,3.07
				c2.069,2.046,3.103,4.583,3.103,7.61c0,2.939-0.928,5.321-2.785,7.149c-1.696,1.681-4.254,2.522-7.675,2.522L265.811,41.282z"/>
			<path style="fill:#35528D;" d="M264.364,53.036h-8.903c-0.775,0-1.403-0.628-1.403-1.403V32.994c0-2.092,0.211-3.783,0.645-5.168
				c0.445-1.417,1.208-2.749,2.269-3.959c1.19-1.339,2.682-2.403,4.442-3.169c1.75-0.761,3.583-1.147,5.45-1.147
				c3.409,0,6.32,1.17,8.651,3.476c2.335,2.311,3.52,5.206,3.52,8.607c0,3.315-1.078,6.056-3.205,8.148
				c-1.956,1.94-4.871,2.925-8.659,2.925l-1.383-0.022c-0.007,0-0.014,0-0.021-0.001v8.947
				C265.767,52.408,265.139,53.036,264.364,53.036z M256.864,50.229h6.097V32.072c0-2.499,1.304-3.991,3.487-3.991
				c2.137,0,3.465,1.26,3.465,3.29c0,0.699-0.218,2.756-2.697,3.321v5.21c2.987-0.003,5.231-0.715,6.644-2.115
				c1.595-1.57,2.369-3.582,2.369-6.152c0-2.66-0.879-4.823-2.686-6.611c-1.812-1.793-3.996-2.665-6.678-2.665
				c-1.479,0-2.937,0.308-4.33,0.914c-1.384,0.603-2.548,1.427-3.458,2.452c-0.795,0.908-1.368,1.899-1.694,2.942
				c-0.343,1.094-0.517,2.55-0.517,4.327V50.229z M266.448,30.888c-0.375,0-0.673,0-0.68,1.141c1.323-0.032,1.338-0.331,1.338-0.659
				c0-0.245-0.045-0.36-0.06-0.381l0,0C267.044,30.99,266.911,30.888,266.448,30.888z"/>
		</g>
		<g>
			<path style="fill:#68C3EE;" d="M294.341,30.296v21.337h-8.904V30.296h-6.82V21.7h22.521v8.597H294.341z"/>
			<path style="fill:#35528D;" d="M294.341,53.036h-8.904c-0.775,0-1.403-0.628-1.403-1.403V31.7h-5.416
				c-0.775,0-1.403-0.628-1.403-1.403V21.7c0-0.776,0.629-1.403,1.403-1.403h22.521c0.775,0,1.403,0.628,1.403,1.403v8.597
				c0,0.776-0.629,1.403-1.403,1.403h-5.395v19.934C295.744,52.408,295.115,53.036,294.341,53.036z M286.841,50.229h6.097V30.296
				c0-0.776,0.629-1.403,1.403-1.403h5.395v-5.79h-19.714v5.79h5.416c0.775,0,1.403,0.628,1.403,1.403L286.841,50.229
				L286.841,50.229z"/>
		</g>
	</g>
</g>
</svg>
