<?xml version="1.0" encoding="iso-8859-1"?>
<!-- Generator: Adobe Illustrator 18.0.0, SVG Export Plug-In . SVG Version: 6.00 Build 0)  -->
<!DOCTYPE svg PUBLIC "-//W3C//DTD SVG 1.1//EN" "http://www.w3.org/Graphics/SVG/1.1/DTD/svg11.dtd">
<svg version="1.1" id="Calque_1" xmlns="http://www.w3.org/2000/svg" xmlns:xlink="http://www.w3.org/1999/xlink" x="0px" y="0px"
	 viewBox="0 0 160 64" style="enable-background:new 0 0 160 64;" xml:space="preserve">
<g id="Livello_102">
	<path style="fill:#ED1C24;" d="M24.703,56.703c-0.48,0.481-1.26,0.48-1.741,0l-0.001-0.001L16,49.741l-6.962,6.962
		c-0.48,0.481-1.26,0.481-1.741,0c-0.48-0.48-0.48-1.26,0-1.741L14.259,48l-6.965-6.965c-0.48-0.48-0.48-1.259,0-1.74
		c0.48-0.481,1.259-0.481,1.741,0L16,46.259l6.962-6.962c0.48-0.48,1.26-0.48,1.741,0c0.481,0.48,0.481,1.26,0,1.741L17.741,48
		l6.962,6.962C25.184,55.443,25.184,56.222,24.703,56.703 M27.314,59.314c6.248-6.248,6.248-16.379,0-22.627
		c-6.248-6.249-16.379-6.249-22.628,0c-6.248,6.248-6.248,16.379,0,22.628C10.935,65.562,21.065,65.562,27.314,59.314"/>
</g>
<g id="Livello_1_1_">
</g>
<rect x="32" y="32" style="fill:none;" width="32" height="32"/>
<path style="fill:#FFFFFF;" d="M64,55c0-4.6-3.5-8.4-8-8.9v-8.5L50.4,32H32v32h24v-0.1C60.5,63.4,64,59.6,64,55z M50,34.4l3.6,3.6
	H50V34.4z M34,62V34h14v6h6v6.1c-4.5,0.5-8,4.3-8,8.9c0,2.8,1.3,5.4,3.3,7H34z M55,61.9c-3.8,0-6.9-3.1-6.9-6.9s3.1-6.9,6.9-6.9
	s6.9,3.1,6.9,6.9S58.8,61.9,55,61.9z"/>
<polygon style="fill:#FFFFFF;" points="60,54 56,54 56,50 54,50 54,54 50,54 50,56 54,56 54,60 56,60 56,56 60,56 "/>
<g>
	<polyline id="XMLID_5_" style="fill:#FFFFFF;" points="73.026,39.425 73.026,45.381 66.944,45.381 	"/>
	<g>
		<path id="XMLID_4_" style="fill:#FFFFFF;" d="M92.757,34.338l-2.688-1.669c-0.919-0.569-2.125-0.287-2.694,0.631l-0.2,0.319
			l6.012,3.725l0.2-0.319C93.957,36.106,93.669,34.906,92.757,34.338z"/>
		<path style="fill:#FFFFFF;" d="M80.126,45l0.013,0.006c-0.025,0.038-0.038,0.081-0.044,0.125l-0.944,7.613
			c-0.012,0.119,0.044,0.237,0.144,0.306c0.106,0.063,0.237,0.063,0.337-0.006l6.4-4.231c0.037-0.025,0.069-0.056,0.094-0.1
			l0.013,0.006l6.612-10.669l-6.006-3.725L80.126,45z M81.882,50.806l-1.737-1.075l0.5-4.037l4.631,2.875L81.882,50.806z"/>
	</g>
	<polygon id="XMLID_1_" style="fill:#FFFFFF;" points="86.538,50.438 86.169,50.213 85.369,50.744 85.369,62.375 67.569,62.375 
		67.569,45.375 72.901,40.044 81.726,40.044 82.501,38.8 72.382,38.8 66.319,44.863 66.319,63.625 86.613,63.625 86.613,50.306 	"/>
</g>
<g>
	<path style="fill:#FFFFFF;" d="M119.111,36.083v-1.642c0-1.35-1.456-2.442-3.256-2.442h-7.722c-1.789,0-3.244,1.092-3.244,2.442
		v1.642H96v1.25h2.344l2.622,24.225c0,1.35,1.456,2.442,3.256,2.442h15.667c1.8,0,3.256-1.092,3.256-2.442l2.589-24.225H128v-1.25
		H119.111z M106.556,34.442c0-0.675,0.689-1.192,1.589-1.192h7.722c0.9,0,1.589,0.517,1.589,1.192v1.642h-10.889v-1.642H106.556z
		 M106.078,60.083L104.889,40h1.611l1.211,20.083H106.078z M112.778,60.083h-1.556V40h1.556V60.083z M117.922,60.083H116.3L117.5,40
		h1.611L117.922,60.083z"/>
</g>
<g id="background">
	<rect x="128" y="32" style="fill:none;" width="32" height="32"/>
</g>
<g id="document_x5F_image_x5F_add">
	<path style="fill:#FFFFFF;" d="M160,55.001c0-4.633-3.5-8.444-8-8.942v-8.475L146.414,32H128v32h24v-0.059
		C156.5,63.443,160,59.633,160,55.001z M145.998,34.413L149.586,38h-3.588V34.413z M130,62V33.998h14v6.001h6v6.06
		c-0.863,0.095-1.688,0.311-2.461,0.633C146.956,46.013,146,46,146,46h-2l-2-2h-4l-2,2h-2c0,0-2,0-2,2v6c0,2,2,2,2,2
		s4.531,0,8.058,0c0.267,2.42,1.493,4.548,3.29,6H130z M140,54c-1.658,0-3-1.342-3-3c0-1.656,1.342-3,3-3
		c1.624,0,2.94,1.295,2.991,2.907c-0.333,0.651-0.589,1.347-0.756,2.077C141.685,53.603,140.892,54,140,54z M151,62
		c-3.865-0.008-6.995-3.135-7-6.999c0.006-3.865,3.135-6.995,7-7.001c3.864,0.006,6.991,3.136,6.999,7.001
		C157.991,58.865,154.864,61.992,151,62z"/>
	<g>
		<polygon style="fill:#FFFFFF;" points="156,54 152.002,54 152.002,50 150,50 150,54 146,54 146,56 150,56 150,60 152.002,60 
			152.002,56 156,56 		"/>
	</g>
</g>
<g id="XMLID_22_">
	<g id="XMLID_107_">
		
			<path id="XMLID_92_" style="fill:#63C4AF;stroke:#35528D;stroke-width:0.5;stroke-linecap:round;stroke-linejoin:round;stroke-miterlimit:10;" d="
			M70.359,25.611H58.988v-2.227c0-3.032,2.458-5.49,5.49-5.49h0.392c3.032,0,5.49,2.458,5.49,5.49V25.611z"/>
		<path id="XMLID_121_" style="fill:#E8E4E4;" d="M64.175,18.047c0.389,0.599,1.199,1.388,2.763,1.388
			c0.81,0,1.446-0.254,1.892-0.757c-0.569-0.413-1.239-0.631-1.948-0.631L64.175,18.047L64.175,18.047z"/>
		
			<rect id="XMLID_105_" x="63.496" y="16.29" style="fill:#FCF6B2;stroke:#35528D;stroke-width:0.5;stroke-linecap:round;stroke-linejoin:round;stroke-miterlimit:10;" width="2.356" height="2.081"/>
		
			<rect id="XMLID_93_" x="63.379" y="15.478" style="fill:#FCF6B2;stroke:#35528D;stroke-width:0.5;stroke-linecap:round;stroke-linejoin:round;stroke-miterlimit:10;" width="2.589" height="1.624"/>
		
			<circle id="XMLID_90_" style="fill:#FCF6B2;stroke:#35528D;stroke-width:0.5;stroke-linecap:round;stroke-linejoin:round;stroke-miterlimit:10;" cx="64.674" cy="12.076" r="4.026"/>
		
			<path id="XMLID_99_" style="fill:#F7AB6F;stroke:#35528D;stroke-width:0.5;stroke-linecap:round;stroke-linejoin:round;stroke-miterlimit:10;" d="
			M67.997,12.609v0.645c0,0.135-0.066,0.26-0.173,0.328l-1.405,0.897c-0.234,0.149-0.529-0.135-0.529-0.43v-0.019
			c0-0.21-0.157-0.381-0.351-0.381h-0.865h-0.865c-0.194,0-0.351,0.17-0.351,0.381v0.019c0,0.295-0.295,0.579-0.529,0.43
			l-1.405-0.897c-0.107-0.068-0.173-0.193-0.173-0.328v-0.645c0-0.21-0.157-0.381-0.351-0.381l0,0c-0.194,0-0.351,0.17-0.351,0.381
			v2.759c0,0.071,0.019,0.141,0.053,0.202l1.014,1.759c0.064,0.111,0.177,0.179,0.298,0.179h2.661h2.66
			c0.121,0,0.234-0.068,0.298-0.179l1.014-1.759c0.035-0.06,0.053-0.13,0.053-0.202v-2.759c0-0.21-0.157-0.381-0.351-0.381l0,0
			C68.154,12.229,67.997,12.399,67.997,12.609z"/>
		
			<path id="XMLID_102_" style="fill:#F7AB6F;stroke:#35528D;stroke-width:0.5;stroke-linecap:round;stroke-linejoin:round;stroke-miterlimit:10;" d="
			M67.563,8.574l0.488,3.082h0.629c0,0,0.284-1.142,0.352-2.068C69.1,8.662,67.563,8.574,67.563,8.574z"/>
		<g id="XMLID_98_">
			
				<path id="XMLID_95_" style="fill:#68C3EE;stroke:#35528D;stroke-width:0.5;stroke-linecap:round;stroke-linejoin:round;stroke-miterlimit:10;" d="
				M61.916,12.813h1.441c0.16,0,0.312-0.072,0.413-0.195l0.423-0.515c0.079-0.096,0.122-0.216,0.122-0.339l0,0
				c0-0.247-0.169-0.462-0.41-0.52l-0.603-0.145c-0.42-0.101-0.859-0.084-1.269,0.05L61.63,11.28
				c-0.266,0.087-0.42,0.364-0.353,0.635l0.12,0.489C61.455,12.644,61.669,12.813,61.916,12.813z"/>
			
				<path id="XMLID_100_" style="fill:#68C3EE;stroke:#35528D;stroke-width:0.5;stroke-linecap:round;stroke-linejoin:round;stroke-miterlimit:10;" d="
				M67.431,12.813H65.99c-0.16,0-0.312-0.072-0.413-0.195l-0.423-0.515c-0.079-0.096-0.122-0.216-0.122-0.339l0,0
				c0-0.247,0.169-0.462,0.41-0.52l0.603-0.145c0.42-0.101,0.859-0.084,1.269,0.05l0.403,0.131c0.266,0.087,0.42,0.364,0.353,0.635
				l-0.12,0.489C67.892,12.644,67.678,12.813,67.431,12.813z"/>
			<g id="XMLID_119_">
				<path id="XMLID_116_" style="fill:#CAEBFC;" d="M65.478,11.392c-0.172,0.041-0.293,0.194-0.293,0.372
					c0,0.014,0.001,0.029,0.003,0.044c0.918-0.045,1.735-0.207,2.278-0.449l-0.198-0.065c-0.22-0.072-0.448-0.108-0.676-0.108
					c-0.171,0-0.342,0.02-0.51,0.061L65.478,11.392z"/>
				<path id="XMLID_128_" style="fill:#CAEBFC;" d="M64.16,11.807c0.002-0.015,0.003-0.029,0.003-0.044
					c0-0.177-0.12-0.33-0.293-0.372l-0.603-0.145c-0.392-0.095-0.803-0.078-1.187,0.047l-0.198,0.065
					C62.425,11.6,63.241,11.762,64.16,11.807z"/>
			</g>
		</g>
		
			<path id="XMLID_106_" style="fill:#35528D;stroke:#35528D;stroke-width:0.5;stroke-linecap:round;stroke-linejoin:round;stroke-miterlimit:10;" d="
			M64.674,11.531c0.154,0,0.279,0.125,0.279,0.279h0.084c-0.001-0.016-0.004-0.031-0.004-0.046l0,0c0-0.162,0.074-0.309,0.192-0.408
			c-0.131-0.158-0.329-0.259-0.551-0.259c-0.222,0-0.42,0.101-0.551,0.259c0.118,0.099,0.192,0.246,0.192,0.408l0,0
			c0,0.016-0.003,0.031-0.004,0.046h0.084C64.394,11.656,64.519,11.531,64.674,11.531z"/>
		
			<rect id="XMLID_104_" x="68.086" y="11.656" style="fill:#35528D;stroke:#35528D;stroke-width:0.5;stroke-linecap:round;stroke-linejoin:round;stroke-miterlimit:10;" width="0.614" height="0.701"/>
		
			<rect id="XMLID_103_" x="63.984" y="14.287" style="fill:#FCF6B2;stroke:#35528D;stroke-width:0.5;stroke-linecap:round;stroke-linejoin:round;stroke-miterlimit:10;" width="1.379" height="0.412"/>
		<path id="XMLID_112_" style="fill:#E8E4E4;" d="M60.863,11.381c0.002,0.02,0.004,0.038,0.005,0.055l0.354,0.048l0.193-1.413
			c0.006-0.042,0.029-0.08,0.064-0.105c0.035-0.024,0.079-0.033,0.121-0.023c0.046,0.011,4.58,1.032,7.241,0.015
			c0.017-0.137,0.03-0.265,0.038-0.382c0.011-0.151-0.029-0.28-0.123-0.393l-0.481-0.066c-0.061-0.008-0.111-0.052-0.127-0.112
			c-0.015-0.057,0.004-0.117,0.048-0.155c-0.168-0.055-0.332-0.086-0.453-0.104l0.103,0.648c0.011,0.067-0.024,0.133-0.086,0.162
			C67.7,9.586,67.627,9.57,67.582,9.52c-0.736-0.837-1.796-1.317-2.909-1.317C62.797,8.203,61.197,9.538,60.863,11.381z"/>
		
			<path id="XMLID_94_" style="fill:#F7AB6F;stroke:#35528D;stroke-width:0.5;stroke-linecap:round;stroke-linejoin:round;stroke-miterlimit:10;" d="
			M60.723,11.656h0.629v-1.578c0,0,6.693,0.603,8.469-2.027h-1.955l0.66-0.67c0,0-5.956-1.03-7.141,0.856
			c0,0-1.083,0.426-1.015,1.352C60.439,10.514,60.723,11.656,60.723,11.656z"/>
		
			<rect id="XMLID_101_" x="60.648" y="11.656" style="fill:#35528D;stroke:#35528D;stroke-width:0.5;stroke-linecap:round;stroke-linejoin:round;stroke-miterlimit:10;" width="0.614" height="0.701"/>
		
			<path id="XMLID_117_" style="fill:none;stroke:#35528D;stroke-width:0.5;stroke-linecap:round;stroke-linejoin:round;stroke-miterlimit:10;" d="
			M61.386,8.236c-0.173,0.305-0.125,0.636-0.125,0.636"/>
	</g>
	
		<path id="XMLID_12_" style="fill:#FFFFFF;stroke:#35528D;stroke-width:0.5;stroke-linecap:round;stroke-linejoin:round;stroke-miterlimit:10;" d="
		M41.551,20.495H26.757c-1.487,0-2.693-1.206-2.693-2.693V9.287c0-1.487,1.206-2.693,2.693-2.693h14.794
		c1.487,0,2.693,1.206,2.693,2.693v8.516C44.244,19.289,43.038,20.495,41.551,20.495z"/>
	
		<path id="XMLID_7_" style="fill:#CAEBFC;stroke:#35528D;stroke-width:0.5;stroke-linecap:round;stroke-linejoin:round;stroke-miterlimit:10;" d="
		M24.064,17.894v1.166c0,0.792,0.642,1.435,1.435,1.435h17.309c0.792,0,1.435-0.642,1.435-1.435v-1.166H24.064z"/>
	
		<rect id="XMLID_6_" x="32.191" y="20.495" style="fill:#FFFFFF;stroke:#35528D;stroke-width:0.5;stroke-linecap:round;stroke-linejoin:round;stroke-miterlimit:10;" width="3.668" height="2.131"/>
	
		<path id="XMLID_16_" style="fill:#FFFFFF;stroke:#35528D;stroke-width:0.5;stroke-linecap:round;stroke-linejoin:round;stroke-miterlimit:10;" d="
		M36.748,23.298h-5.447c-0.179,0-0.324-0.145-0.324-0.324v-0.023c0-0.179,0.145-0.324,0.324-0.324h5.447
		c0.179,0,0.324,0.145,0.324,0.324v0.023C37.073,23.153,36.928,23.298,36.748,23.298z"/>
	<g id="XMLID_64_">
		<rect id="XMLID_71_" x="25.08" y="7.609" style="fill:#F5FBFE;" width="18.149" height="9.27"/>
		
			<rect id="XMLID_70_" x="25.08" y="7.609" style="fill:#F5FBFE;stroke:#35528D;stroke-width:0.5;stroke-linecap:round;stroke-linejoin:round;stroke-miterlimit:10;" width="18.149" height="9.27"/>
	</g>
	<rect id="XMLID_56_" x="7.966" y="23.298" style="fill:#E8E4E4;" width="69.636" height="2.79"/>
	
		<line id="XMLID_32_" style="fill:none;stroke:#35528D;stroke-width:0.5;stroke-linecap:round;stroke-linejoin:round;stroke-miterlimit:10;" x1="7.292" y1="23.298" x2="78.277" y2="23.298"/>
	
		<line id="XMLID_35_" style="fill:none;stroke:#35528D;stroke-width:0.5;stroke-linecap:round;stroke-linejoin:round;stroke-miterlimit:10;" x1="0" y1="28.728" x2="32.453" y2="28.728"/>
	
		<path id="XMLID_9_" style="fill:none;stroke:#35528D;stroke-width:0.5;stroke-linecap:round;stroke-linejoin:round;stroke-miterlimit:10;" d="
		M65.095,28.728"/>
	
		<path id="XMLID_3_" style="fill:none;stroke:#35528D;stroke-width:0.5;stroke-linecap:round;stroke-linejoin:round;stroke-miterlimit:10;" d="
		M46.983,28.728"/>
	
		<path id="XMLID_8_" style="fill:none;stroke:#35528D;stroke-width:0.5;stroke-linecap:round;stroke-linejoin:round;stroke-miterlimit:10;" d="
		M80,0.782"/>
	
		<path id="XMLID_2_" style="fill:none;stroke:#35528D;stroke-width:0.5;stroke-linecap:round;stroke-linejoin:round;stroke-miterlimit:10;" d="
		M38.726,0.782"/>
	
		<path id="XMLID_46_" style="fill:#A7D495;stroke:#35528D;stroke-width:0.5;stroke-linecap:round;stroke-linejoin:round;stroke-miterlimit:10;" d="
		M26.844,27.255H15.472v-4.664c0-3.032,2.458-5.49,5.49-5.49h0.392c3.032,0,5.49,2.458,5.49,5.49V27.255z"/>
	
		<rect id="XMLID_69_" x="25.08" y="7.609" style="fill:#F498BF;stroke:#35528D;stroke-width:0.5;stroke-linecap:round;stroke-linejoin:round;stroke-miterlimit:10;" width="18.149" height="3.222"/>
	
		<circle id="XMLID_72_" style="fill:#A7D495;stroke:#FFFFFF;stroke-width:0.5;stroke-linecap:round;stroke-linejoin:round;stroke-miterlimit:10;" cx="27.485" cy="9.22" r="0.67"/>
	
		<line id="XMLID_74_" style="fill:none;stroke:#FFFFFF;stroke-width:0.5;stroke-linecap:round;stroke-linejoin:round;stroke-miterlimit:10;" x1="29.924" y1="8.861" x2="31.108" y2="8.861"/>
	
		<line id="XMLID_75_" style="fill:none;stroke:#FFFFFF;stroke-width:0.5;stroke-linecap:round;stroke-linejoin:round;stroke-miterlimit:10;" x1="29.924" y1="9.652" x2="33.782" y2="9.652"/>
	<g id="XMLID_78_">
		<g id="XMLID_76_">
			
				<rect id="XMLID_73_" x="30.674" y="12.584" style="fill:#FFFFFF;stroke:#35528D;stroke-width:0.5;stroke-linecap:round;stroke-linejoin:round;stroke-miterlimit:10;" width="4.112" height="3.097"/>
			
				<rect id="XMLID_77_" x="30.674" y="12.076" style="fill:#F7AB6F;stroke:#35528D;stroke-width:0.5;stroke-linecap:round;stroke-linejoin:round;stroke-miterlimit:10;" width="4.112" height="1.396"/>
		</g>
		<g id="XMLID_79_">
			
				<rect id="XMLID_81_" x="36.931" y="12.584" style="fill:#FFFFFF;stroke:#35528D;stroke-width:0.5;stroke-linecap:round;stroke-linejoin:round;stroke-miterlimit:10;" width="4.112" height="3.097"/>
			
				<rect id="XMLID_80_" x="36.931" y="12.076" style="fill:#68C3EE;stroke:#35528D;stroke-width:0.5;stroke-linecap:round;stroke-linejoin:round;stroke-miterlimit:10;" width="4.112" height="1.396"/>
		</g>
	</g>
	<rect id="XMLID_87_" x="32.343" y="20.648" style="fill:#E8E4E4;" width="3.363" height="0.43"/>
	
		<circle id="XMLID_62_" style="fill:#FFFFFF;stroke:#35528D;stroke-width:0.5;stroke-linecap:round;stroke-linejoin:round;stroke-miterlimit:10;" cx="34.154" cy="19.195" r="0.485"/>
	<rect id="XMLID_89_" x="25.232" y="7.761" style="fill:#E8E4E4;" width="17.844" height="0.578"/>
	
		<rect id="XMLID_67_" x="26.675" y="22.097" style="fill:#A7D495;stroke:#35528D;stroke-width:0.5;stroke-linecap:round;stroke-linejoin:round;stroke-miterlimit:10;" width="4" height="1.731"/>
	
		<path id="XMLID_82_" style="fill:#FCF6B2;stroke:#35528D;stroke-width:0.5;stroke-linecap:round;stroke-linejoin:round;stroke-miterlimit:10;" d="
		M32.131,22.097h-1.457v1.202h2.617v-0.041C33.291,22.616,32.772,22.097,32.131,22.097z"/>
	<g id="XMLID_83_">
		
			<path id="XMLID_30_" style="fill:#68C3EE;stroke:#35528D;stroke-width:0.5;stroke-linecap:round;stroke-linejoin:round;stroke-miterlimit:10;" d="
			M28.685,28.728H13.631l1.632-7.616c0.247-1.151,1.54-1.995,3.055-1.995h5.679c1.516,0,2.809,0.844,3.055,1.995L28.685,28.728z"/>
		<path id="XMLID_86_" style="fill:#E8E4E4;" d="M14.882,28.575h0.544l1.388-6.576c0,0,0,0,0,0c0.158-0.736,1.129-1.313,2.211-1.313
			h5.679c0.292,0,0.584,0.043,0.856,0.123c-0.36-0.319-0.944-0.525-1.563-0.525h-5.679c-0.928,0-1.787,0.481-1.914,1.072
			L14.882,28.575z"/>
		
			<line id="XMLID_59_" style="fill:none;stroke:#35528D;stroke-width:0.5;stroke-linecap:round;stroke-linejoin:round;stroke-miterlimit:10;" x1="27.503" y1="28.728" x2="26.406" y2="23.591"/>
		<g id="XMLID_58_">
			
				<path id="XMLID_63_" style="fill:none;stroke:#35528D;stroke-width:0.5;stroke-linecap:round;stroke-linejoin:round;stroke-miterlimit:10;" d="
				M16.175,22.295l0.18-0.84c0.141-0.657,1.031-1.172,2.026-1.172"/>
		</g>
	</g>
	
		<path id="XMLID_84_" style="fill:#FFFFFF;stroke:#35528D;stroke-width:0.5;stroke-linecap:round;stroke-linejoin:round;stroke-miterlimit:10;" d="
		M66.17,22.626H47.81v0.023c0,0.358,0.291,0.649,0.649,0.649h17.062c0.358,0,0.649-0.291,0.649-0.649L66.17,22.626L66.17,22.626z"/>
	
		<path id="XMLID_85_" style="fill:#CAEBFC;stroke:#35528D;stroke-width:0.5;stroke-linecap:round;stroke-linejoin:round;stroke-miterlimit:10;" d="
		M62.673,14.132H51.308c-1.109,0-2.009,0.899-2.009,2.009v7.157h15.382v-7.157C64.681,15.032,63.782,14.132,62.673,14.132z"/>
	
		<circle id="XMLID_88_" style="fill:#FFFFFF;stroke:#35528D;stroke-width:0.5;stroke-linecap:round;stroke-linejoin:round;stroke-miterlimit:10;" cx="56.99" cy="19.116" r="0.745"/>
	<path id="XMLID_96_" style="fill:#E8E4E4;" d="M56.99,18.524c-0.273,0-0.504,0.186-0.572,0.438c0.158-0.131,0.36-0.208,0.572-0.208
		c0.212,0,0.414,0.077,0.572,0.208C57.494,18.71,57.263,18.524,56.99,18.524z"/>
	<path id="XMLID_97_" style="fill:#E8E4E4;" d="M64.529,23.146v-7.943c0-0.484-0.377-0.883-0.853-0.916
		c0.253,0.224,0.413,0.552,0.413,0.916v7.943H64.529z"/>
	<path id="XMLID_91_" style="fill:#E8E4E4;" d="M49.452,23.146v-7.943c0-0.484,0.377-0.883,0.853-0.916
		c-0.253,0.224-0.413,0.552-0.413,0.916v7.943H49.452z"/>
	
		<line id="XMLID_115_" style="fill:none;stroke:#35528D;stroke-width:0.5;stroke-linecap:round;stroke-linejoin:round;stroke-miterlimit:10;" x1="68.086" y1="20.977" x2="68.086" y2="23.298"/>
	<g id="XMLID_124_">
		
			<rect id="XMLID_111_" x="10.294" y="19.68" style="fill:#FFFFFF;stroke:#35528D;stroke-width:0.5;stroke-linecap:round;stroke-linejoin:round;stroke-miterlimit:10;" width="3.012" height="3.619"/>
		<rect id="XMLID_127_" x="12.765" y="19.832" style="fill:#E8E4E4;" width="0.389" height="3.314"/>
		<g id="XMLID_118_">
			
				<path id="XMLID_123_" style="fill:#A7D495;stroke:#35528D;stroke-width:0.5;stroke-linecap:round;stroke-linejoin:round;stroke-miterlimit:10;" d="
				M11.8,14.731l-0.954,2.114c-0.348,0.77-0.314,1.658,0.091,2.399l0.238,0.436H11.8h0.626l0.238-0.436
				c0.404-0.741,0.438-1.63,0.091-2.399L11.8,14.731z"/>
			
				<line id="XMLID_120_" style="fill:none;stroke:#35528D;stroke-width:0.5;stroke-linecap:round;stroke-linejoin:round;stroke-miterlimit:10;" x1="11.8" y1="19.68" x2="11.8" y2="17.39"/>
			
				<line id="XMLID_122_" style="fill:none;stroke:#35528D;stroke-width:0.5;stroke-linecap:round;stroke-linejoin:round;stroke-miterlimit:10;" x1="11.8" y1="18.32" x2="12.25" y2="17.87"/>
		</g>
	</g>
	<g id="XMLID_132_">
		
			<circle id="XMLID_125_" style="fill:#F69EA0;stroke:#35528D;stroke-width:0.5;stroke-linecap:round;stroke-linejoin:round;stroke-miterlimit:10;" cx="51.871" cy="7.761" r="3.249"/>
		
			<circle id="XMLID_126_" style="fill:#FFFFFF;stroke:#35528D;stroke-width:0.5;stroke-linecap:round;stroke-linejoin:round;stroke-miterlimit:10;" cx="51.871" cy="7.761" r="2.284"/>
		
			<line id="XMLID_130_" style="fill:none;stroke:#35528D;stroke-width:0.5;stroke-linecap:round;stroke-linejoin:round;stroke-miterlimit:10;" x1="51.871" y1="7.761" x2="51.871" y2="6.594"/>
		
			<line id="XMLID_131_" style="fill:none;stroke:#35528D;stroke-width:0.5;stroke-linecap:round;stroke-linejoin:round;stroke-miterlimit:10;" x1="51.871" y1="7.761" x2="52.455" y2="7.761"/>
		<g id="XMLID_129_">
			
				<circle style="fill:none;stroke:#35528D;stroke-width:0.5;stroke-linecap:round;stroke-linejoin:round;stroke-dasharray:0,13.3534;" cx="51.871" cy="7.761" r="1.701"/>
		</g>
	</g>
	
		<path id="XMLID_133_" style="fill:#FFFFFF;stroke:#35528D;stroke-width:0.5;stroke-linecap:round;stroke-linejoin:round;stroke-miterlimit:10;" d="
		M70.499,22.138h-0.196c-0.619,0-1.12,0.502-1.12,1.12v0.04h2.437v-0.04C71.619,22.639,71.118,22.138,70.499,22.138z"/>
	
		<path id="XMLID_134_" style="fill:#FCF6B2;stroke:#35528D;stroke-width:0.5;stroke-linecap:round;stroke-linejoin:round;stroke-miterlimit:10;" d="
		M69.237,22.626h2.327v-0.188c0-0.378-0.307-0.685-0.685-0.685h-0.957c-0.378,0-0.685,0.307-0.685,0.685L69.237,22.626
		L69.237,22.626z"/>
	<g id="XMLID_142_">
		
			<rect id="XMLID_140_" x="42.048" y="15.909" style="fill:#F498BF;stroke:#35528D;stroke-width:0.5;stroke-linecap:round;stroke-linejoin:round;stroke-miterlimit:10;" width="0.736" height="4.202"/>
		
			<path id="XMLID_141_" style="fill:#FFFFFF;stroke:#35528D;stroke-width:0.5;stroke-linecap:round;stroke-linejoin:round;stroke-miterlimit:10;" d="
			M42.429,15.143h-0.025c-0.196,0-0.355,0.159-0.355,0.355v0.411h0.736v-0.411C42.784,15.302,42.625,15.143,42.429,15.143z"/>
		
			<polygon id="XMLID_143_" style="fill:#FFFFFF;stroke:#35528D;stroke-width:0.5;stroke-linecap:round;stroke-linejoin:round;stroke-miterlimit:10;" points="
			42.048,20.111 42.416,20.646 42.784,20.111 		"/>
	</g>
	<g id="XMLID_146_">
		
			<rect id="XMLID_149_" x="44.108" y="15.861" transform="matrix(-0.9724 -0.2332 0.2332 -0.9724 83.5369 45.8002)" style="fill:#63C4AF;stroke:#35528D;stroke-width:0.5;stroke-linecap:round;stroke-linejoin:round;stroke-miterlimit:10;" width="0.736" height="4.202"/>
		
			<path id="XMLID_148_" style="fill:#FFFFFF;stroke:#35528D;stroke-width:0.5;stroke-linecap:round;stroke-linejoin:round;stroke-miterlimit:10;" d="
			M45.154,15.175l-0.015-0.004c-0.116-0.028-0.233,0.044-0.261,0.16l-0.128,0.534l0.436,0.105l0.128-0.534
			C45.342,15.32,45.27,15.203,45.154,15.175z"/>
		
			<polygon id="XMLID_147_" style="fill:#FFFFFF;stroke:#35528D;stroke-width:0.5;stroke-linecap:round;stroke-linejoin:round;stroke-miterlimit:10;" points="
			43.63,19.919 43.863,20.524 44.346,20.091 		"/>
		
			<polyline id="XMLID_144_" style="fill:none;stroke:#35528D;stroke-width:0.5;stroke-linecap:round;stroke-linejoin:round;stroke-miterlimit:10;" points="
			45.245,16.342 45.623,16.432 45.197,18.21 		"/>
	</g>
	<g id="XMLID_137_">
		
			<rect id="XMLID_135_" x="41.667" y="19.86" style="fill:#68C3EE;stroke:#35528D;stroke-width:0.5;stroke-linecap:round;stroke-linejoin:round;stroke-miterlimit:10;" width="3.554" height="3.438"/>
		
			<path id="XMLID_136_" style="fill:#68C3EE;stroke:#35528D;stroke-width:0.5;stroke-linecap:round;stroke-linejoin:round;stroke-miterlimit:10;" d="
			M45.306,19.195h-3.723c-0.178,0-0.321,0.144-0.321,0.321v0.023c0,0.178,0.144,0.321,0.321,0.321h3.723
			c0.178,0,0.321-0.144,0.321-0.321v-0.023C45.627,19.339,45.483,19.195,45.306,19.195z"/>
		<rect id="XMLID_145_" x="41.82" y="20.012" style="fill:#E8E4E4;" width="3.249" height="0.316"/>
	</g>
	<g id="XMLID_153_">
		
			<path id="XMLID_11_" style="fill:none;stroke:#35528D;stroke-width:0.5;stroke-linecap:round;stroke-linejoin:round;stroke-miterlimit:10;" d="
			M12.807,33.414"/>
		
			<path id="XMLID_10_" style="fill:none;stroke:#35528D;stroke-width:0.5;stroke-linecap:round;stroke-linejoin:round;stroke-miterlimit:10;" d="
			M12.807,34.988"/>
	</g>
	
		<path id="XMLID_170_" style="fill:#FFFFFF;stroke:#35528D;stroke-width:0.5;stroke-linecap:round;stroke-linejoin:round;stroke-miterlimit:10;" d="
		M72.885,9.958c-1.132,0-2.049,0.917-2.049,2.049c0,0.03,0.001,0.06,0.002,0.091l-1.017,0.606l1.18,0.111
		c0.313,0.73,1.039,1.241,1.883,1.241c1.132,0,2.049-0.917,2.049-2.049C74.934,10.875,74.017,9.958,72.885,9.958z"/>
	<g id="XMLID_168_">
		<circle id="XMLID_157_" style="fill:#35528D;" cx="72.022" cy="12.081" r="0.223"/>
		<circle id="XMLID_169_" style="fill:#35528D;" cx="72.898" cy="12.081" r="0.223"/>
		<circle id="XMLID_171_" style="fill:#35528D;" cx="73.773" cy="12.081" r="0.223"/>
	</g>
	<g id="XMLID_54_">
		
			<path id="XMLID_48_" style="fill:#68C3EE;stroke:#35528D;stroke-width:0.5;stroke-linecap:round;stroke-linejoin:round;stroke-miterlimit:10;" d="
			M16.797,13.98H16.77c-0.208,0-0.376-0.168-0.376-0.376v-1.685c0-0.208,0.168-0.376,0.376-0.376h0.027
			c0.208,0,0.376,0.168,0.376,0.376v1.685C17.173,13.812,17.005,13.98,16.797,13.98z"/>
		
			<path id="XMLID_55_" style="fill:#68C3EE;stroke:#35528D;stroke-width:0.5;stroke-linecap:round;stroke-linejoin:round;stroke-miterlimit:10;" d="
			M25.546,13.98h-0.027c-0.208,0-0.376-0.168-0.376-0.376v-1.685c0-0.208,0.168-0.376,0.376-0.376h0.027
			c0.208,0,0.376,0.168,0.376,0.376v1.685C25.922,13.812,25.753,13.98,25.546,13.98z"/>
	</g>
	
		<path id="XMLID_50_" style="fill:#F7AB6F;stroke:#35528D;stroke-width:0.5;stroke-linecap:round;stroke-linejoin:round;stroke-miterlimit:10;" d="
		M21.158,7.609c-0.539,0-1.055,0.099-1.531,0.279c-0.43-0.332-0.771-0.465-0.771-0.465c0.239,0.148,0.286,0.479,0.292,0.68
		c-0.059,0.031-0.116,0.063-0.173,0.096l-0.407-0.167v0.436c-1.058,0.79-1.743,2.559-1.743,3.981c0,2.392,1.94,3.824,4.332,3.824
		s4.332-1.432,4.332-3.824S23.551,7.609,21.158,7.609z"/>
	
		<rect id="XMLID_17_" x="19.864" y="15.478" style="fill:#FCF6B2;stroke:#35528D;stroke-width:0.5;stroke-linecap:round;stroke-linejoin:round;stroke-miterlimit:10;" width="2.589" height="1.624"/>
	
		<path id="XMLID_57_" style="fill:none;stroke:#35528D;stroke-width:0.5;stroke-linecap:round;stroke-linejoin:round;stroke-miterlimit:10;" d="
		M19.044,9.348c0,0-0.096,0.479,0.181,0.608l0.308-0.568"/>
	<g id="XMLID_60_">
		<path id="XMLID_61_" style="fill:#E8E4E4;" d="M22.602,15.449c0.002,0.009,0.003,0.019,0.003,0.029v0.45
			c1.288-0.366,2.221-1.229,2.576-2.394C24.67,14.469,23.761,15.144,22.602,15.449z"/>
		<path id="XMLID_65_" style="fill:#E8E4E4;" d="M19.711,15.478c0-0.01,0.001-0.02,0.003-0.029c-1.16-0.305-2.068-0.98-2.579-1.915
			c0.355,1.165,1.288,2.028,2.576,2.394L19.711,15.478L19.711,15.478z"/>
	</g>
	
		<path id="XMLID_173_" style="fill:none;stroke:#35528D;stroke-width:0.5;stroke-linecap:round;stroke-linejoin:round;stroke-miterlimit:10;" d="
		M16.784,11.543V10.75c0-2.424,1.965-4.388,4.388-4.388l0,0c2.424,0,4.388,1.965,4.388,4.388v0.794"/>
	
		<path id="XMLID_172_" style="fill:none;stroke:#35528D;stroke-width:0.5;stroke-linecap:round;stroke-linejoin:round;stroke-miterlimit:10;" d="
		M16.784,13.98v1.566c0,0.325,0.263,0.588,0.588,0.588h0.284"/>
	
		<path id="XMLID_174_" style="fill:#35528D;stroke:#35528D;stroke-width:0.5;stroke-linecap:round;stroke-linejoin:round;stroke-miterlimit:10;" d="
		M18.261,16.565h-0.298c-0.17,0-0.308-0.138-0.308-0.308v-0.022c0-0.17,0.138-0.308,0.308-0.308h0.298
		c0.17,0,0.308,0.138,0.308,0.308v0.022C18.569,16.428,18.431,16.565,18.261,16.565z"/>
</g>
<g>
	<g>
		<g>
			<path style="fill:#69C3EE;" d="M35.348,2.793l1.491,0.039C36.74,3.603,36.473,4.2,36.037,4.621
				c-0.436,0.421-1.005,0.632-1.707,0.632c-0.713,0-1.311-0.239-1.791-0.718c-0.481-0.478-0.721-1.072-0.721-1.781
				c0-0.713,0.245-1.313,0.735-1.8c0.49-0.487,1.094-0.73,1.812-0.73c0.706,0,1.296,0.239,1.768,0.716
				c0.328,0.33,0.559,0.789,0.695,1.379l-1.526,0.102c-0.171-0.524-0.495-0.786-0.972-0.786c-0.304,0-0.555,0.105-0.752,0.316
				c-0.198,0.211-0.296,0.478-0.296,0.804c0,0.313,0.097,0.572,0.291,0.777s0.44,0.307,0.737,0.307c0.302,0,0.542-0.09,0.721-0.27
				C35.209,3.388,35.315,3.13,35.348,2.793z"/>
			<path style="fill:#36538D;" d="M34.33,5.477c-0.772,0-1.428-0.264-1.95-0.783c-0.522-0.52-0.787-1.172-0.787-1.94
				c0-0.772,0.27-1.431,0.801-1.959C32.926,0.268,33.589,0,34.365,0c0.765,0,1.414,0.263,1.928,0.782
				c0.356,0.358,0.609,0.858,0.754,1.487c0.015,0.064,0.001,0.131-0.039,0.184c-0.039,0.053-0.1,0.086-0.165,0.09l-0.688,0.046
				l0.69,0.018c0.064,0.002,0.123,0.03,0.165,0.078c0.041,0.048,0.06,0.112,0.052,0.175c-0.104,0.82-0.397,1.467-0.869,1.923
				C35.716,5.243,35.089,5.477,34.33,5.477z M34.365,0.449c-0.663,0-1.204,0.217-1.654,0.664c-0.45,0.447-0.669,0.983-0.669,1.641
				c0,0.652,0.214,1.183,0.655,1.621c0.441,0.439,0.975,0.652,1.633,0.652c0.647,0,1.155-0.186,1.551-0.569
				c0.35-0.338,0.583-0.811,0.696-1.41l-1.037-0.027c-0.058,0.291-0.176,0.527-0.351,0.704c-0.222,0.223-0.518,0.336-0.88,0.336
				c-0.36,0-0.662-0.127-0.9-0.377c-0.234-0.247-0.353-0.56-0.353-0.932c0-0.383,0.12-0.705,0.357-0.957
				C33.655,1.54,33.963,1.41,34.33,1.41c0.371,0,0.852,0.14,1.124,0.775l1.088-0.072c-0.129-0.424-0.319-0.765-0.567-1.015
				C35.541,0.661,35.015,0.449,34.365,0.449z M34.33,1.86c-0.241,0-0.434,0.08-0.589,0.245c-0.159,0.169-0.236,0.381-0.236,0.65
				c0,0.256,0.075,0.46,0.23,0.623c0.151,0.159,0.339,0.237,0.574,0.237c0.242,0,0.425-0.067,0.562-0.204
				c0.141-0.142,0.226-0.356,0.253-0.639c0.006-0.06,0.035-0.113,0.078-0.149c-0.052-0.026-0.094-0.073-0.113-0.131
				C34.904,1.925,34.567,1.86,34.33,1.86z"/>
		</g>
		<g>
			<path style="fill:#69C3EE;" d="M39.312,2.6v1.284h-0.474v1.249h-1.425V2.161c0-0.559,0.172-1.022,0.517-1.388
				c0.345-0.366,0.78-0.549,1.304-0.549c0.578,0,1.061,0.249,1.449,0.747l-1.168,0.852c-0.066-0.183-0.181-0.274-0.347-0.274
				c-0.22,0-0.33,0.152-0.33,0.456V2.6L39.312,2.6L39.312,2.6z"/>
			<path style="fill:#36538D;" d="M38.839,5.358h-1.425c-0.124,0-0.224-0.1-0.224-0.224V2.161c0-0.616,0.195-1.134,0.579-1.542
				C38.156,0.208,38.649,0,39.235,0c0.648,0,1.195,0.28,1.626,0.834c0.037,0.048,0.054,0.109,0.045,0.169
				c-0.008,0.06-0.041,0.114-0.09,0.15l-1.168,0.852c-0.057,0.042-0.131,0.054-0.198,0.033c-0.068-0.021-0.122-0.072-0.145-0.139
				c-0.045-0.125-0.095-0.125-0.136-0.125c-0.042,0-0.105,0-0.105,0.232v0.368h0.249c0.124,0,0.224,0.1,0.224,0.224v1.284
				c0,0.124-0.1,0.224-0.224,0.224h-0.249v1.024C39.063,5.257,38.963,5.358,38.839,5.358z M37.639,4.908h0.976V3.884
				c0-0.124,0.1-0.224,0.224-0.224h0.249V2.824h-0.249c-0.124,0-0.224-0.1-0.224-0.224V2.007c0-0.632,0.424-0.681,0.554-0.681
				c0.166,0,0.306,0.06,0.412,0.173l0.775-0.565c-0.315-0.326-0.683-0.485-1.12-0.485c-0.464,0-0.836,0.157-1.14,0.479
				c-0.307,0.326-0.456,0.729-0.456,1.234L37.639,4.908L37.639,4.908z"/>
		</g>
		<g>
			<path style="fill:#69C3EE;" d="M42.53,3.477V2.221c0.288,0,0.432-0.11,0.432-0.33c0-0.201-0.11-0.302-0.33-0.302
				c-0.222,0-0.333,0.138-0.333,0.414v3.13h-1.424V2.151c0-0.309,0.031-0.562,0.093-0.76c0.062-0.198,0.168-0.382,0.317-0.552
				c0.168-0.19,0.379-0.339,0.632-0.449s0.513-0.165,0.783-0.165c0.487,0,0.895,0.164,1.226,0.491s0.496,0.733,0.496,1.218
				c0,0.47-0.148,0.851-0.446,1.144c-0.271,0.269-0.681,0.404-1.228,0.404L42.53,3.477z"/>
			<path style="fill:#36538D;" d="M42.298,5.358h-1.424c-0.124,0-0.224-0.1-0.224-0.224V2.151c0-0.335,0.034-0.605,0.103-0.827
				c0.071-0.227,0.193-0.44,0.363-0.633c0.19-0.214,0.429-0.384,0.711-0.507C42.106,0.062,42.4,0,42.698,0
				c0.545,0,1.011,0.187,1.384,0.556c0.374,0.37,0.563,0.833,0.563,1.377c0,0.53-0.172,0.969-0.513,1.304
				c-0.313,0.31-0.779,0.468-1.385,0.468l-0.221-0.004c-0.001,0-0.002,0-0.003,0v1.432C42.523,5.257,42.422,5.358,42.298,5.358z
				 M41.098,4.908h0.976V2.003c0-0.4,0.209-0.639,0.558-0.639c0.342,0,0.554,0.202,0.554,0.526c0,0.112-0.035,0.441-0.432,0.531
				v0.834c0.478,0,0.837-0.114,1.063-0.338c0.255-0.251,0.379-0.573,0.379-0.984c0-0.426-0.141-0.772-0.43-1.058
				c-0.29-0.287-0.639-0.426-1.068-0.426c-0.237,0-0.47,0.049-0.693,0.146c-0.221,0.096-0.408,0.228-0.553,0.392
				c-0.127,0.145-0.219,0.304-0.271,0.471c-0.055,0.175-0.083,0.408-0.083,0.692L41.098,4.908L41.098,4.908z M42.632,1.814
				c-0.06,0-0.108,0-0.109,0.183c0.212-0.005,0.214-0.053,0.214-0.105c0-0.039-0.007-0.058-0.01-0.061l0,0
				C42.727,1.83,42.706,1.814,42.632,1.814z"/>
		</g>
		<g>
			<path style="fill:#69C3EE;" d="M47.095,1.719v3.414H45.67V1.719h-1.091V0.344h3.603v1.376L47.095,1.719L47.095,1.719z"/>
			<path style="fill:#36538D;" d="M47.095,5.358H45.67c-0.124,0-0.224-0.1-0.224-0.224V1.944h-0.867c-0.124,0-0.224-0.1-0.224-0.224
				V0.344c0-0.124,0.101-0.224,0.224-0.224h3.603c0.124,0,0.224,0.1,0.224,0.224v1.376c0,0.124-0.101,0.224-0.224,0.224h-0.863
				v3.189C47.319,5.257,47.218,5.358,47.095,5.358z M45.895,4.908h0.976V1.719c0-0.124,0.101-0.224,0.224-0.224h0.863V0.568h-3.154
				v0.926h0.867c0.124,0,0.224,0.1,0.224,0.224V4.908L45.895,4.908z"/>
		</g>
	</g>
</g>
<g>
	<g>
		<g>
			<path style="fill:#69C3EE;" d="M105.691,14.461l4.771,0.123c-0.314,2.469-1.169,4.378-2.564,5.725
				c-1.395,1.347-3.216,2.02-5.461,2.02c-2.282,0-4.193-0.765-5.73-2.296c-1.538-1.53-2.306-3.429-2.306-5.697
				c0-2.282,0.784-4.201,2.352-5.758c1.567-1.557,3.501-2.335,5.797-2.335c2.26,0,4.146,0.763,5.658,2.29
				c1.048,1.055,1.788,2.526,2.223,4.411l-4.883,0.326c-0.547-1.676-1.583-2.514-3.109-2.514c-0.973,0-1.775,0.337-2.407,1.01
				c-0.632,0.674-0.948,1.53-0.948,2.571c0,1.003,0.31,1.831,0.932,2.486c0.621,0.655,1.407,0.982,2.357,0.982
				c0.965,0,1.734-0.288,2.306-0.865C105.249,16.365,105.587,15.539,105.691,14.461z"/>
			<path style="fill:#36538D;" d="M102.436,23.048c-2.468,0-4.567-0.843-6.237-2.504c-1.671-1.663-2.518-3.751-2.518-6.206
				c0-2.47,0.862-4.579,2.564-6.268c1.7-1.688,3.821-2.543,6.304-2.543c2.448,0,4.523,0.842,6.168,2.503
				c1.138,1.146,1.95,2.746,2.412,4.756c0.048,0.205,0.002,0.42-0.123,0.59c-0.125,0.169-0.319,0.274-0.529,0.288l-2.202,0.147
				l2.206,0.057c0.203,0.005,0.395,0.096,0.527,0.25c0.132,0.154,0.193,0.357,0.167,0.558c-0.334,2.624-1.269,4.693-2.779,6.151
				C106.868,22.3,104.863,23.048,102.436,23.048z M102.549,6.962c-2.12,0-3.851,0.696-5.292,2.126
				c-1.44,1.429-2.139,3.146-2.139,5.249c0,2.087,0.685,3.784,2.095,5.187c1.411,1.404,3.119,2.086,5.224,2.086
				c2.071,0,3.694-0.595,4.962-1.819c1.119-1.08,1.866-2.595,2.228-4.511l-3.316-0.085c-0.186,0.932-0.563,1.687-1.124,2.252
				c-0.709,0.714-1.657,1.076-2.816,1.076c-1.151,0-2.119-0.405-2.878-1.206c-0.749-0.79-1.129-1.793-1.129-2.981
				c0-1.224,0.384-2.254,1.143-3.062c0.77-0.821,1.757-1.237,2.931-1.237c1.186,0,2.727,0.446,3.594,2.481l3.48-0.232
				c-0.413-1.358-1.021-2.447-1.815-3.247C106.311,7.642,104.628,6.962,102.549,6.962z M102.436,11.475
				c-0.772,0-1.389,0.256-1.884,0.784c-0.508,0.54-0.754,1.22-0.754,2.079c0,0.82,0.24,1.471,0.735,1.992
				c0.484,0.51,1.084,0.758,1.836,0.758c0.773,0,1.361-0.213,1.797-0.652c0.45-0.453,0.723-1.14,0.81-2.044
				c0.018-0.192,0.112-0.36,0.249-0.478c-0.168-0.084-0.301-0.232-0.363-0.42C104.273,11.684,103.195,11.475,102.436,11.475z"/>
		</g>
		<g>
			<path style="fill:#69C3EE;" d="M118.376,13.844v4.108h-1.515v3.996h-4.558V12.44c0-1.788,0.552-3.268,1.655-4.439
				c1.104-1.171,2.494-1.757,4.17-1.757c1.848,0,3.394,0.797,4.636,2.391l-3.738,2.727c-0.21-0.584-0.58-0.875-1.111-0.875
				c-0.703,0-1.055,0.487-1.055,1.459v1.897L118.376,13.844L118.376,13.844z"/>
			<path style="fill:#36538D;" d="M116.86,22.666h-4.558c-0.397,0-0.718-0.321-0.718-0.718V12.44c0-1.969,0.622-3.629,1.851-4.932
				c1.24-1.316,2.819-1.982,4.693-1.982c2.073,0,3.823,0.897,5.203,2.667c0.119,0.153,0.171,0.349,0.145,0.541
				c-0.027,0.192-0.131,0.366-0.288,0.481l-3.738,2.727c-0.183,0.133-0.418,0.172-0.635,0.106c-0.217-0.067-0.389-0.231-0.465-0.444
				c-0.144-0.4-0.305-0.4-0.435-0.4c-0.134,0-0.337,0-0.337,0.741v1.179h0.797c0.397,0,0.718,0.321,0.718,0.718v4.108
				c0,0.397-0.321,0.718-0.718,0.718h-0.797v3.277C117.579,22.344,117.257,22.666,116.86,22.666z M113.021,21.229h3.121v-3.277
				c0-0.397,0.321-0.718,0.718-0.718h0.797v-2.671h-0.797c-0.397,0-0.718-0.321-0.718-0.718v-1.897c0-2.02,1.357-2.177,1.774-2.177
				c0.531,0,0.98,0.192,1.318,0.554l2.478-1.808c-1.007-1.043-2.185-1.551-3.583-1.551c-1.483,0-2.676,0.501-3.647,1.531
				c-0.983,1.043-1.46,2.333-1.46,3.947L113.021,21.229L113.021,21.229z"/>
		</g>
		<g>
			<path style="fill:#69C3EE;" d="M128.668,16.649v-4.019c0.92,0,1.381-0.352,1.381-1.055c0-0.643-0.352-0.965-1.055-0.965
				c-0.71,0-1.067,0.442-1.067,1.325v10.012h-4.557v-9.54c0-0.987,0.099-1.798,0.297-2.43c0.198-0.632,0.537-1.222,1.016-1.767
				c0.539-0.607,1.212-1.085,2.02-1.437s1.643-0.528,2.504-0.528c1.557,0,2.864,0.524,3.923,1.571
				c1.059,1.047,1.588,2.346,1.588,3.895c0,1.504-0.475,2.724-1.426,3.659c-0.868,0.86-2.177,1.291-3.929,1.291L128.668,16.649z"/>
			<path style="fill:#36538D;" d="M127.928,22.666h-4.557c-0.397,0-0.718-0.321-0.718-0.718v-9.541c0-1.071,0.108-1.936,0.33-2.645
				c0.228-0.725,0.618-1.407,1.161-2.026c0.609-0.685,1.373-1.23,2.274-1.622c0.896-0.39,1.834-0.587,2.79-0.587
				c1.745,0,3.235,0.599,4.428,1.779c1.195,1.183,1.802,2.665,1.802,4.406c0,1.697-0.552,3.1-1.641,4.171
				c-1.001,0.993-2.493,1.497-4.432,1.497l-0.708-0.011c-0.004,0-0.007,0-0.011-0.001v4.58
				C128.646,22.344,128.324,22.666,127.928,22.666z M124.089,21.229h3.121v-9.294c0-1.279,0.667-2.043,1.785-2.043
				c1.094,0,1.774,0.645,1.774,1.684c0,0.358-0.112,1.411-1.381,1.7v2.667c1.529-0.002,2.678-0.366,3.401-1.083
				c0.816-0.804,1.213-1.834,1.213-3.149c0-1.362-0.45-2.469-1.375-3.384c-0.928-0.918-2.045-1.364-3.418-1.364
				c-0.757,0-1.503,0.158-2.216,0.468c-0.708,0.309-1.304,0.73-1.77,1.255c-0.407,0.465-0.7,0.972-0.867,1.506
				c-0.176,0.56-0.265,1.305-0.265,2.215v8.822H124.089z M128.994,11.329c-0.192,0-0.344,0-0.348,0.584
				c0.677-0.016,0.685-0.169,0.685-0.337c0-0.125-0.023-0.184-0.031-0.195l0,0C129.299,11.381,129.231,11.329,128.994,11.329z"/>
		</g>
		<g>
			<path style="fill:#69C3EE;" d="M143.272,11.026v10.922h-4.558V11.026h-3.491v-4.4h11.528v4.401L143.272,11.026L143.272,11.026z"
				/>
			<path style="fill:#36538D;" d="M143.272,22.666h-4.558c-0.397,0-0.718-0.321-0.718-0.718V11.745h-2.772
				c-0.397,0-0.718-0.321-0.718-0.718V6.626c0-0.397,0.322-0.718,0.718-0.718h11.528c0.397,0,0.718,0.321,0.718,0.718v4.401
				c0,0.397-0.322,0.718-0.718,0.718h-2.762v10.204C143.99,22.344,143.668,22.666,143.272,22.666z M139.433,21.229h3.121V11.026
				c0-0.397,0.322-0.718,0.718-0.718h2.762V7.344h-10.091v2.964h2.772c0.397,0,0.718,0.321,0.718,0.718V21.229L139.433,21.229z"/>
		</g>
	</g>
</g>
</svg>
